<?xml version="1.0" encoding="UTF-8"?><svg id="Layer_1" xmlns="http://www.w3.org/2000/svg" viewBox="0 0 286 152"><defs><style>.cls-1{fill:#c2015c;}.cls-2{fill:#54185a;}</style></defs><path class="cls-2" d="m139.36,61.21c-.35-1.94,1.75-3.12,2.79-3.43,1.54-.46,1.77-1.31,2.1-2.47.1-.35.51-.6.77-.9.67,1.1,1.43,1.47,2.41.34.2.17.54.33.56.51.07.79.09,1.6.02,2.39-.07.82.26,1.23.99,1.63,1.72.94,2.07,3,1.04,4.64-.59.95-1.04,2-1.43,3.06-.09.24.42,1.04.42,1.04,0,0,.98,4.95.75,5.42s-.37,9.21-.37,9.21c0,0-.49,1.78-.83,2.01-.44.3-.43,1.02-.49,1.55-.36,3.26-.67,6.53-1.02,9.79-.13,1.24-.49,2.47-.46,3.7.08,2.99.32,5.98.5,8.97-1.27,2.54-.75,5.29-.87,7.95-.14,2.98-.13,5.97-.21,8.95,0,.22-.13.51-.3.63-.4.29-.85.62-1.31.67-.19.02-.69-.69-.64-1,.31-2.05-.01-4.02-.47-6-.13-.56-.07-1.02.73-1.65,1.2-.94-.44-4.14-2.15-4.65l-.59-6.22c.6-.89,1.31-1.73,1.78-2.68.65-1.3.12-2.4-1.3-3.01-.15-1.09-.36-2.18-.44-3.28-.09-1.31-.05-2.63-.07-3.95-.13-.61-.26-1.22-.39-1.83-.19-.5-.38-1.01-.56-1.51-.2-1.19-.57-2.36-.66-3.53l-.22-2.83s-1.48-1.91-1.41-4.66-.49-9.95.28-11.36c.18-.33,1.52-1.41,1.76-1.98.48-1.13-.73-2.56-.44-3.76.19-.76-.19-1.32-.27-1.74Z"/><path class="cls-1" d="m141.88,113.54c1.71.51,3.35,3.71,2.15,4.65-.8.63-.86,1.09-.73,1.65.46,1.99.79,3.95.47,6-.05.32.45,1.02.64,1,.46-.05.91-.38,1.31-.67.17-.12.29-.42.3-.63.08-2.98.07-5.97.21-8.95.12-2.66-.39-5.41.87-7.95.31.6.82,1.19.89,1.82.39,3.67.85,7.35.95,11.03.07,2.55-.84,4.93-2.86,6.7-1.22,1.07-2.42,1.01-3.11-.44-1.56-3.27-2.52-6.73-2.07-10.41.16-1.29.65-2.53.99-3.8Z"/><path class="cls-2" d="m129.99,45.7c3.53,3.78,7.07,7.55,10.63,11.31.17.18.49.23.74.35-.06-.3-.03-.7-.21-.9-3.55-3.83-7.11-7.64-10.7-11.42l-2.59-2.84c-1.39-1.68-2.77-3.35-4.19-5.01-.5-.58-1.08-1.1-1.72-1.74-.23.07-.49.16-.75.24.07.19.08.43.21.57.67.75,1.36,1.49,2.05,2.21,1.33,1.39,2.67,2.78,4.02,4.15l2.5,3.08Z"/><path class="cls-1" d="m141.78,101.63c1.42.61,1.96,1.71,1.3,3.01-.48.95-1.18,1.79-1.78,2.68.16-1.9.32-3.79.48-5.69Z"/><path class="cls-1" d="m140.87,92.58c.13.61.26,1.22.39,1.83-.13-.61-.26-1.22-.39-1.83Z"/><path class="cls-2" d="m145.72,75.57c-.51,0-.14-2.01-.14-2.01,0,0,.61-2.99.7-3.97s2.29-1.45,3.19-2.06c1.28-.87,2.67-1.61,3.84-2.61,2.12-1.82,4.12-3.77,6.17-5.67.18-.16.4-.3.5-.51.51-1.04,2.48,1.15,2.59-1.28.04-.81,1.53-1.65,2.47-2.32,5.16-3.69,10.29-7.42,15.55-10.97,3.76-2.54,7.65-4.91,11.58-7.2,4.38-2.56,8.86-4.95,13.3-7.4,8.34-4.61,16.96-8.56,26.09-11.34,4.31-1.31,8.66-2.39,13.17-2.91,5.44-.62,10.8-.91,16.05,1.02,3.18,1.17,5,3.42,5.64,6.75.67,3.47-.05,6.73-1.09,9.99-.13.65-.27,1.29-.4,1.94l.02-.02c-1.24,2.12-3.22,3.93-2.89,6.73,0,0,.01-.02.01-.02-.15.18-.29.36-.44.54-1.44,2.13-2.87,4.27-4.33,6.39-.42.61-.94,1.16-1.42,1.74-.14.19-.27.38-.41.57l.06-.03c-.21.3-.43.59-.64.89,0,0,.02-.02.02-.02-.17.17-.33.34-.5.51,0,0,.03-.03.03-.03-.13.2-.26.4-.39.59h.04c-.21.29-.43.57-.64.86,0,0,.02-.02.02-.02-.16.17-.33.34-.49.5,0,0,.02-.02.02-.02-.17.17-.33.34-.5.51,0,0,.03-.03.03-.03l-.99,1.45s.02-.02.02-.02c-.16.17-.33.34-.49.51l.03-.03c-.14.2-.28.39-.43.59l.05-.04c-.21.3-.41.6-.62.9l.02-.03c-.15.18-.3.35-.45.53-1.36,2.05-2.63,4.16-4.09,6.13-1.81,2.44-3.6,4.93-5.73,7.07-2.08,2.09-4.42,4.01-6.93,5.54-2.9,1.77-6,3.43-9.24,4.35-2.09.59-4.49,1.45-6.89.48-.75-.3-1.72-.07-2.59-.08-.88-.68-1.16-1.35.14-1.82.81-.29,1.67-.41,2.5-.64.34-.1.66-.28.99-.42-.29-.17-.58-.48-.88-.5-1.01-.07-2.18-.27-1.94-1.48.39-1.93-.51-2.79-2.03-3.48-.41-.19-.73-.61-1.07-.94-.47-.48-.43-.67.3-.86.78-.2,2.11-.69,2.11-1.05,0-2.08,1.44-1.7,2.61-1.78,2.58-.19,5.16-.28,7.73-.53.51-.05,1.27-.56,1.36-.97.1-.5-.33-1.57-.64-1.61-2.16-.31-2.92-1.93-3.81-3.55-.2-.35-1.01-.31-1.45-.6-.55-.37-1.01-.88-1.51-1.33.47-.35.91-.92,1.43-1,3.1-.47,6.21-.98,9.33-1.18,1.85-.11,3.42-.02,3.98-2.33.31-1.28.25-1.73-1.1-1.73-.53,0-1.07.24-1.6.35-1.66.35-2.97-.4-3.5-2.04-.2-.6-.32-1.22-.56-1.8-.3-.74-1.17-1.45,0-2.19.77-.49,1.65-1.55,2.27-1.41,2.01.45,4.29-.31,6.05,1.32.64.6,1.57.53,1.64-.39.13-1.69,1.18-1.52,2.31-1.57,1.25-.06,2.5-.24,3.75-.41.43-.06.84-.24,1.26-.36-.38-.52-.69-1.38-1.16-1.49-2.12-.48-4.32-.61-6.43-1.11-1.64-.39-3.81-.37-3.66-3.1.02-.35-.86-1.03-1.38-1.09-1.22-.14-1.72-.47-1.33-1.8.11-.39-.3-1.25-.68-1.4-.86-.36-.87-1.19-1.3-1.7-1.41-1.65-3.07-3.13-4.77-4.49-.36-.29-1.31.23-2,.29-1.16.11-2.37.38-3.47.15-1.21-.25-2.3-1.07-3.5-1.47-.5-.16-1.61.02-1.66.24-.3,1.15-1.3.85-1.9.91-1.22.14-2.16.2-2.26,1.79-.07,1.08-.93,2.95-.7,3.07,2.02,1.08.79,1.81-.05,2.72-.21.23-.26.98-.09,1.12,1.43,1.14,1.61,3.39,3.79,3.92,1.21.29,3.05.96,3.25,1.79.36,1.47,1.41,2.31,1.99,3.5.77,1.6.86,2.8-.62,4.31-1.29,1.32-2.77,1.44-4.23,1.75-2.26.47-2.61.75-2.84,2.94-.23,2.16-.56,4.31-1.01,6.43-.13.59-.78,1.43-1.29,1.5-1.93.28-3.89.25-5.84.44-.7.07-1.6.22-2,.69-1.08,1.23-1.3,2.77-.42,4.21.65,1.07,1.55,1.98,2.32,2.98.17.22.27.48.41.72-.3.06-.65.26-.88.16-1.36-.59-2.74-1.16-4.02-1.9-1.4-.8-2.78-1.71-4.44-1.31-1.79.43-3.77-.46-5.43.86-.24.19-.84.16-1.16,0-1.64-.76-1.88.31-2.07,1.5h0c-4,.6-8,1.27-12.08.98-.17-.01-.35.18-.53.28.14.18.26.47.43.51.46.11.94.11,1.42.15,2.8.2,5.6.41,8.47.61-1.28.58-2.42,1.44-3.66,1.59-2.29.28-4.63.12-6.95.23-.32.01-.62.49-.93.76.28.22.54.48.85.64,1.09.57,2.23,1.07,3.29,1.7.23.14.41.74.3.98-.13.28-.8.65-.9.57-1.42-1.1-3.04-.23-4.55-.53-1.58-.31-3.23-.24-4.86-.29-.07,0-.28.45-.21.54.54.71,1.11,1.41,1.72,2.07.42.44,1.16.72,1.34,1.22.58,1.61,1.18,2.6,3.04,1.29.28-.2,1.31.51,1.87.96.2.16.18.91-.03,1.18-.59.81-3.52,1.37-3.96.63-.68-1.16-1.52-.67-2.35-.76-.52-.06-1.09-.18-1.53-.45-1.12-.68-2.13-1.54-3.28-2.14-.44-.23-1.15.06-1.73.11.18.48.29,1.02.55,1.45.66,1.05,1.35,2.09,2.1,3.08.79,1.05.07,1.26-.72,1.32-1.11.07-2.23.04-3.35.01-.87-.02-.96.25-.48.94.77,1.11,1.51,2.24,2.22,3.39.13.2.04.54.05.81-.23,0-.58.08-.67-.03-.79-.93-1.63-1.84-2.26-2.88-.69-1.16-1.02-2.59-2.89-1.35-.5.33-1.4.07-2.12.02-.17-.01-.45-.25-.46-.39,0-.17.2-.41.38-.5.42-.22.87-.41,1.32-.53,1.25-.33,1.51-1.15,1.41-2.34-.17-1.85-1.88-1.39-2.85-2.02-.17-.67-.29-1.36-.53-2.01-.1-.29-.43-.49-.65-.74-.46-.05-3.04-8.32-3.56-8.32Z"/><path class="cls-2" d="m161.13,69.99c.31-.58.57-1.06.83-1.53.58-1.08.94-2.15.37-3.41-.21-.47.03-1.14.07-1.72-.81.26-1.71.37-2.41.81-.56.35-.96,1.05-1.26,1.67-.28.59-.66,1.53-.41,1.87.57.78,1.51,1.28,2.81,2.3Z"/><path class="cls-1" d="m150.45,86.63c.97.63,2.68.17,2.85,2.02.11,1.19-.15,2.01-1.41,2.34-.46.12-.9.31-1.32.53-.18.09-.39.33-.38.5,0,.14.29.38.46.39.71.05,1.62.31,2.12-.02,1.87-1.24,2.19.19,2.89,1.35.62,1.04,1.47,1.95,2.26,2.88.1.12.44.03.67.03-.01-.27.07-.61-.05-.81-.71-1.15-1.44-2.29-2.22-3.39-.48-.69-.39-.96.48-.94,1.12.03,2.24.06,3.35-.01.79-.05,1.51-.27.72-1.32-.75-.99-1.44-2.03-2.1-3.08-.27-.43-.37-.96-.55-1.45.59-.05,1.29-.34,1.73-.11,1.15.6,2.16,1.47,3.28,2.14.44.27,1,.39,1.53.45.83.09,1.67-.39,2.35.76.43.74,3.36.17,3.96-.63.2-.27.22-1.02.03-1.18-.56-.45-1.59-1.16-1.87-.96-1.86,1.31-2.46.32-3.04-1.29-.18-.5-.93-.77-1.34-1.22-.61-.65-1.18-1.35-1.72-2.07-.06-.09.14-.54.21-.54,1.62.06,3.28-.02,4.86.29,1.5.3,3.13-.57,4.55.53.11.08.77-.28.9-.57.11-.24-.07-.85-.3-.98-1.06-.62-2.2-1.12-3.29-1.7-.31-.16-.57-.42-.85-.64.31-.26.61-.74.93-.76,2.32-.11,4.66.05,6.95-.23,1.23-.15,2.38-1.01,3.66-1.59-2.87-.21-5.67-.41-8.47-.61-.47-.03-.96-.04-1.42-.15-.17-.04-.29-.33-.43-.51.18-.1.36-.29.53-.28,4.08.29,8.07-.38,12.08-.98.03.06.04.13.08.18.03.03.09.02.14.03-.07-.07-.15-.14-.22-.22.19-1.18.43-2.26,2.07-1.5.33.15.92.19,1.16,0,1.66-1.32,3.64-.43,5.43-.86,1.66-.4,3.05.51,4.44,1.31,1.28.74,2.66,1.31,4.02,1.9.23.1.59-.1.88-.16-.13-.24-.24-.51-.41-.72-.77-.99-1.67-1.91-2.32-2.98-.88-1.44-.66-2.98.42-4.21.41-.47,1.31-.62,2-.69,1.94-.19,3.91-.16,5.84-.44.51-.07,1.16-.92,1.29-1.5.45-2.12.79-4.27,1.01-6.43.23-2.19.58-2.48,2.84-2.94,1.46-.3,2.94-.43,4.23-1.75,1.48-1.51,1.38-2.71.62-4.31-.58-1.2-1.63-2.04-1.99-3.5-.2-.83-2.04-1.49-3.25-1.79-2.18-.53-2.36-2.78-3.79-3.92-.17-.14-.12-.89.09-1.12.83-.91,2.07-1.64.05-2.72-.24-.13.63-1.99.7-3.07.1-1.59,1.04-1.65,2.26-1.79.6-.07,1.61.24,1.9-.91.06-.22,1.16-.41,1.66-.24,1.2.39,2.29,1.22,3.5,1.47,1.1.23,2.32-.04,3.47-.15.69-.06,1.64-.58,2-.29,1.7,1.37,3.36,2.84,4.77,4.49.43.5.44,1.33,1.3,1.7.38.16.79,1.01.68,1.4-.39,1.33.11,1.66,1.33,1.8.52.06,1.4.73,1.38,1.09-.15,2.73,2.02,2.71,3.66,3.1,2.11.5,4.31.64,6.43,1.11.47.11.78.97,1.16,1.49-.42.12-.83.3-1.26.36-1.25.17-2.5.35-3.75.41-1.13.05-2.18-.12-2.31,1.57-.07.92-1,.99-1.64.39-1.76-1.63-4.04-.87-6.05-1.32-.62-.14-1.5.91-2.27,1.41-1.16.74-.3,1.45,0,2.19.23.58.36,1.2.56,1.8.53,1.63,1.84,2.39,3.5,2.04.54-.11,1.07-.35,1.6-.35,1.35,0,1.41.45,1.1,1.73-.56,2.31-2.13,2.22-3.98,2.33-3.12.19-6.23.7-9.33,1.18-.52.08-.95.65-1.43,1,.5.45.95.97,1.51,1.33.43.29,1.25.24,1.45.6.9,1.61,1.65,3.24,3.81,3.55.31.04.74,1.11.64,1.61-.09.41-.85.92-1.36.97-2.57.25-5.15.35-7.73.53-1.17.09-2.62-.29-2.61,1.78,0,.36-1.34.85-2.11,1.05-.73.19-.78.38-.3.86.34.34.65.76,1.07.94,1.52.69,2.42,1.55,2.03,3.48-.25,1.21.92,1.4,1.94,1.48.31.02.59.33.88.5-.33.14-.65.32-.99.42-.83.23-1.69.36-2.5.64-1.3.46-1.02,1.14-.14,1.82.46.43.93.85,1.39,1.28-1-.15-2.02-.21-3-.45-1.49-.37-2.97-1.2-4.02.85-.2.39-1.25.39-1.92.48-.43.06-.88-.05-1.31-.08.41.28.79.64,1.24.83,1.39.58,2.84,1.02,4.19,1.68.44.21.94.93.9,1.38-.09.98-.82.57-1.45.43-.77-.17-1.57-.17-2.36-.19-.18,0-.37.16-.55.25.12.19.2.43.36.55.97.68,2.01,1.28,2.92,2.03.35.29.43.9.63,1.36-.45.03-.94.17-1.36.06-1.44-.4-2.85-.91-4.29-1.32-.35-.1-.77.04-1.16.06.24.37.4.87.74,1.08.88.54,1.92.84,2.74,1.44.84.62,1.5,1.48,2.24,2.23-.86.28-1.72.57-2.58.85-.29.09-.58.18-.86.27.13.34.19.77.42,1.01.49.51,1.19.86,1.58,1.42.3.43.25,1.09.35,1.65-.49-.01-1,.07-1.46-.05-.53-.14-1.01-.45-1.51-.7-1.49-.71-2.96-1.46-4.47-2.11-.26-.11-.68.13-1.03.21.17.26.29.58.52.76,1.42,1.14,2.91,2.2,4.3,3.38.6.51,1.03,1.22,1.53,1.84-.76-.17-1.58-.22-2.28-.52-1.6-.7-3.13-1.55-4.71-2.29-.22-.1-.57.08-.85.14.12.2.19.45.36.6,1.55,1.32,3,2.81,4.72,3.86.97.59,1.8,1.16,1.18,2.09-.69,1.02-1.75.21-2.5-.32-1.16-.82-2.24-1.77-3.35-2.65-.93-.74-1.82-1.31-2.82,0-.24.31-.94.29-1.44.36-.28.04-.57-.06-.85-.09.08.29.1.62.25.85,1.15,1.72,2.33,3.42,3.48,5.14,1.24,1.84,2.52,3.67,3.65,5.58.21.35-.03,1.19-.34,1.55-.19.22-1.01.09-1.41-.13-.37-.2-.57-.72-.84-1.11-2.12-3.06-4.25-6.13-7.12-8.57-.29-.25-.77-.28-1.17-.41,0,.38-.08.76,0,1.12.06.3.25.58.44.84,1.69,2.39,3.42,4.76,5.07,7.18.43.64.7,1.42.9,2.17.29,1.06-.27,1.54-1.28,1.3-.58-.14-1.26-.42-1.61-.86-1.6-2.05-3.09-4.18-4.62-6.28-.45-.62-.84-1.29-1.33-1.88-.16-.2-.54-.22-.82-.32-.09.29-.26.58-.26.87,0,.3.09.64.23.9.99,1.81,2.09,3.56,3,5.41,1.2,2.46,2.35,4.96,3.33,7.51.25.64.24,1.86-.88,2.07-.92.17-1.33-.43-1.43-1.41-.08-.76-.44-1.52-.82-2.2-1.59-2.83-3.24-5.63-4.86-8.44-.67-1.17-1.31-2.36-2.01-3.51-.11-.17-.58-.3-.75-.21-.2.11-.37.49-.36.74.01.3.22.59.35.88,1.4,3.11,2.81,6.22,4.18,9.34.76,1.74,1.51,3.48,2.13,5.28.21.6-.02,1.34-.05,2.02-.57-.33-1.33-.52-1.68-1.01-.66-.93-1.08-2.03-1.6-3.06-1.81-3.6-3.61-7.21-5.42-10.81-.32-.64-.66-1.29-1.1-1.84-.25-.31-.75-.41-1.13-.61.03.36-.02.76.11,1.09.92,2.37,2.01,4.68,2.79,7.09,1.12,3.45,2.1,6.95,2.98,10.46.14.54-.55,1.28-.86,1.93-.47-.53-1.39-1.1-1.34-1.58.24-2.62-1.01-4.78-1.93-7.03-1.25-3.08-2.6-6.13-3.93-9.18-.14-.32-.51-.53-.77-.8.01.37-.07.78.05,1.12,1.1,3.23,2.24,6.45,3.37,9.68.21.6.44,1.2.55,1.81.03.2-.3.46-.47.7-.12-.16-.27-.3-.35-.48-.13-.29-.2-.6-.3-.9-.84-2.39-1.65-4.79-2.55-7.15-.16-.43-.68-.72-1.03-1.07.03.44,0,.9.11,1.31.68,2.43,1.41,4.85,2.11,7.27.24.83.51,1.67.65,2.52.06.32-.19.69-.3,1.04-.32-.18-.8-.29-.94-.57-.58-1.19-1.15-2.39-1.57-3.64-.76-2.25-1.38-4.55-2.12-6.81-.09-.27-.55-.43-.84-.64.01.29-.01.58.05.86.48,2.17.98,4.33,1.45,6.49.05.22-.04.47-.07.71-.21-.15-.52-.25-.62-.46-1.06-2.2-2.13-4.4-3.11-6.64-.51-1.16-.82-2.4-1.29-3.58-.12-.29-.52-.47-.8-.7-.06.36-.27.76-.17,1.06.98,2.85,2.03,5.67,3.03,8.51.26.73.43,1.49.63,2.24-2.62-3.2-5.62-6.16-7.77-9.65-4.47-7.25-8.56-14.74-12.65-22.22-1.52-2.79-2.15-5.9-1.06-9.08.12-.35.6-.57.91-.85Zm30.08-7.41c-.13-.2-.21-.43-.37-.52-.87-.53-4.29.02-4.94.84-.2.26-.3.99-.23,1.02,1.11.5,2.35,1.4,3.38,1.22.82-.14,1.41-1.62,2.15-2.56Z"/><path class="cls-2" d="m171.02,128.42c-.21-.75-.38-1.51-.63-2.24-1-2.84-2.05-5.67-3.03-8.51-.1-.3.11-.71.17-1.06.27.23.68.41.8.7.47,1.17.78,2.42,1.29,3.58.98,2.24,2.05,4.44,3.11,6.64.1.21.41.31.62.46.03-.24.11-.49.07-.71-.47-2.17-.97-4.33-1.45-6.49-.06-.28-.03-.57-.05-.86.29.21.75.36.84.64.74,2.26,1.37,4.56,2.12,6.81.42,1.25.98,2.46,1.57,3.64.14.28.62.38.94.57.11-.35.36-.72.3-1.04-.15-.85-.41-1.69-.65-2.52-.7-2.42-1.43-4.84-2.11-7.27-.12-.42-.08-.88-.11-1.31.35.35.87.65,1.03,1.07.9,2.37,1.71,4.76,2.55,7.15.11.3.18.61.3.9.08.18.23.32.35.48.17-.23.5-.5.47-.7-.11-.62-.34-1.22-.55-1.81-1.12-3.23-2.26-6.45-3.37-9.68-.12-.34-.04-.74-.05-1.12.26.26.63.48.77.8,1.34,3.05,2.68,6.09,3.93,9.18.92,2.25,2.17,4.41,1.93,7.03-.04.48.87,1.05,1.34,1.58.31-.65.99-1.4.86-1.93-.88-3.52-1.86-7.02-2.98-10.46-.79-2.41-1.87-4.72-2.79-7.09-.13-.33-.08-.72-.11-1.09.39.2.88.3,1.13.61.45.55.78,1.2,1.1,1.84,1.82,3.6,3.62,7.21,5.42,10.81.52,1.03.94,2.13,1.6,3.06.35.49,1.11.68,1.68,1.01.03-.68.26-1.42.05-2.02-.62-1.79-1.37-3.54-2.13-5.28-1.37-3.13-2.79-6.23-4.18-9.34-.13-.29-.34-.58-.35-.88,0-.25.16-.63.36-.74.17-.09.64.04.75.21.71,1.15,1.34,2.34,2.01,3.51,1.62,2.81,3.27,5.61,4.86,8.44.38.68.74,1.44.82,2.2.1.98.5,1.58,1.43,1.41,1.13-.21,1.13-1.43.88-2.07-.98-2.55-2.12-5.05-3.33-7.51-.91-1.85-2.01-3.6-3-5.41-.15-.27-.24-.6-.23-.9,0-.29.17-.58.26-.87.28.1.66.12.82.32.49.59.88,1.26,1.33,1.88,1.52,2.1,3.02,4.23,4.62,6.28.35.44,1.03.72,1.61.86,1.01.24,1.57-.24,1.28-1.3-.21-.75-.47-1.53-.9-2.17-1.65-2.42-3.38-4.78-5.07-7.18-.18-.26-.38-.54-.44-.84-.07-.36,0-.75,0-1.12.39.13.87.16,1.17.41,2.87,2.44,4.99,5.51,7.12,8.57.27.39.47.91.84,1.11.4.22,1.22.35,1.41.13.32-.36.55-1.2.34-1.55-1.14-1.91-2.41-3.73-3.65-5.58-1.15-1.72-2.34-3.41-3.48-5.14-.16-.24-.17-.57-.25-.85.29.04.58.13.85.09.5-.07,1.2-.05,1.44-.36,1-1.31,1.89-.74,2.82,0,1.12.89,2.19,1.83,3.35,2.65.75.53,1.82,1.34,2.5.32.62-.93-.2-1.49-1.18-2.09-1.72-1.05-3.17-2.54-4.72-3.86-.17-.14-.24-.4-.36-.6.29-.05.64-.24.85-.14,1.58.74,3.11,1.59,4.71,2.29.7.31,1.51.36,2.28.52-.5-.62-.93-1.34-1.53-1.84-1.39-1.18-2.87-2.24-4.3-3.38-.23-.18-.35-.5-.52-.76.35-.08.76-.33,1.03-.21,1.51.66,2.99,1.4,4.47,2.11.5.24.98.56,1.51.7.46.12.97.04,1.46.05-.11-.56-.06-1.22-.35-1.65-.39-.57-1.09-.91-1.58-1.42-.24-.25-.29-.67-.42-1.01.29-.09.58-.18.86-.27.86-.28,1.72-.57,2.58-.85-.74-.76-1.4-1.62-2.24-2.23-.82-.6-1.86-.9-2.74-1.44-.34-.21-.5-.71-.74-1.08.39-.03.81-.16,1.16-.06,1.44.41,2.85.92,4.29,1.32.42.11.9-.03,1.36-.06-.2-.46-.28-1.08-.63-1.36-.91-.75-1.95-1.35-2.92-2.03-.17-.12-.25-.37-.36-.55.18-.09.37-.26.55-.25.79.03,1.59.03,2.36.19.63.14,1.36.55,1.45-.43.04-.44-.46-1.16-.9-1.38-1.35-.65-2.8-1.1-4.19-1.68-.45-.19-.83-.55-1.24-.83.44.03.89.14,1.31.08.67-.09,1.72-.09,1.92-.48,1.06-2.05,2.53-1.22,4.02-.85.98.24,2,.31,3,.45,2.95.5,4.91,2.54,6.64,4.66,2.89,3.53,4.78,7.52,4.41,12.28-.21,2.82-.19,5.67-.54,8.48-.19,1.51-.83,2.99-1.46,4.4-1.18,2.62-2.56,5.16-3.76,7.78-1.3,2.84-3.23,5.14-5.73,6.99-.53.31-1.09.58-1.6.93-2.01,1.38-3.86,3.08-6.04,4.1-3.4,1.59-7.01,2.72-10.54,4.05-4.02.83-8.04.98-12.06-.04-2.08-.91-4.16-1.83-6.24-2.74,0,0,.03.02.03.02-.33-.17-.65-.34-.98-.51l.03.02-5.18-3.44-.51-.51c-.35-.44-.7-.89-1.05-1.33,0,0,.01.02.01.02Zm32.82-16.76c-.33-.62-.5-1.41-.99-1.77-1.6-1.17-3.31-2.21-5-3.25-.2-.12-.55,0-.83.02.06.22.06.48.19.65,1.42,1.79,2.83,3.59,4.33,5.31.37.42,1.05.56,1.59.83.22-.55.43-1.09.71-1.78Z"/><path class="cls-1" d="m196.96,136.93c3.52-1.33,7.14-2.46,10.54-4.05,2.18-1.02,4.03-2.72,6.04-4.1.51-.35,1.06-.62,1.6-.93-.21,1.36-.95,2.3-2.14,2.99-4.36,2.54-8.71,5.12-13.67,6.33-.72.18-1.57-.15-2.36-.25Z"/><path class="cls-1" d="m262.06,41.73c-.34-2.8,1.64-4.6,2.89-6.73-.3,2.53-1.47,4.68-2.89,6.73Z"/><path class="cls-1" d="m178.67,134.15c2.08.91,4.16,1.83,6.24,2.74-2.53.11-4.46-1.15-6.24-2.74Z"/><path class="cls-1" d="m172.57,130.24l5.18,3.44c-2.26-.34-4.05-1.4-5.18-3.44Z"/><path class="cls-1" d="m171.01,128.4c.35.44.7.89,1.05,1.33-.35-.44-.7-.89-1.05-1.33Z"/><path class="cls-1" d="m264.93,35.02c.13-.65.27-1.29.4-1.94-.13.65-.27,1.29-.4,1.94Z"/><path class="cls-1" d="m251.53,56.1l.99-1.45-.99,1.45Z"/><path class="cls-1" d="m250.09,58.02c.21-.3.41-.6.62-.9-.21.3-.41.6-.62.9Z"/><path class="cls-1" d="m177.72,133.67c.33.17.65.34.98.51-.33-.17-.65-.34-.98-.51Z"/><path class="cls-1" d="m253.45,53.71c.21-.29.43-.57.64-.86-.21.29-.43.57-.64.86Z"/><path class="cls-1" d="m254.89,51.8c.21-.3.43-.59.64-.89-.21.3-.43.59-.64.89Z"/><path class="cls-1" d="m255.47,50.94c.14-.19.27-.38.41-.57-.14.19-.27.38-.41.57Z"/><path class="cls-1" d="m261.63,42.24c.15-.18.29-.36.44-.54-.15.18-.29.36-.44.54Z"/><path class="cls-1" d="m254.41,52.29c.17-.17.33-.34.5-.51-.17.17-.33.34-.5.51Z"/><path class="cls-1" d="m254.05,52.85c.13-.2.26-.4.39-.59-.13.2-.26.4-.39.59Z"/><path class="cls-1" d="m252.97,54.19c.16-.17.33-.34.49-.5-.16.17-.33.34-.49.5Z"/><path class="cls-1" d="m251.06,56.6c.16-.17.33-.34.49-.51-.16.17-.33.34-.49.51Z"/><path class="cls-1" d="m250.66,57.15c.14-.2.28-.39.43-.59-.14.2-.28.39-.43.59Z"/><path class="cls-1" d="m249.66,58.52c.15-.18.3-.35.45-.53-.15.18-.3.35-.45.53Z"/><path class="cls-1" d="m252.5,54.68c.17-.17.33-.34.5-.51-.17.17-.33.34-.5.51Z"/><path class="cls-1" d="m161.13,69.99c-1.3-1.01-2.24-1.52-2.81-2.3-.26-.35.13-1.29.41-1.87.3-.63.7-1.32,1.26-1.67.7-.44,1.6-.56,2.41-.81-.04.58-.28,1.25-.07,1.72.57,1.26.21,2.32-.37,3.41-.26.48-.51.95-.83,1.53Z"/><path class="cls-2" d="m180.53,79.22c-.74.94-1.33,2.42-2.15,2.56-1.04.18-2.27-.72-3.38-1.22-.07-.03.02-.76.23-1.02.65-.82,4.08-1.37,4.94-.84.16.1.23.32.37.52Z"/><path class="cls-2" d="m183.02,72.85c.07.07.15.14.22.22-.05,0-.12,0-.14-.03-.04-.05-.06-.12-.08-.18,0,0,0,0,0,0Z"/><path class="cls-1" d="m203.84,111.66c-.27.69-.49,1.23-.71,1.78-.54-.27-1.22-.41-1.59-.83-1.5-1.72-2.91-3.52-4.33-5.31-.13-.16-.13-.43-.19-.65.28-.01.63-.14.83-.02,1.69,1.05,3.4,2.08,5,3.25.49.36.66,1.14.99,1.77Z"/><path class="cls-2" d="m137.97,86.43c-.36-.07-1.29.55-1.47,1.02-.43,1.15-.62,2.38-.91,3.58,0,0-.03.03-.03.03-.28.12-.67.17-.83.38-.84,1.15-1.7,2.26-1.63,3.86.02.48-.72,1.04-1.2,1.46-.13.12-.57-.11-.88-.18.19-.48.33-.99.58-1.43.71-1.25,1.05-2.53.14-3.8-1.02-1.44-2.09-.41-3.15.01-.25.1-.59-.03-.89-.05.07-.33.03-.76.22-.98,1.05-1.16,2.2-2.23,3.22-3.42.28-.33.21-.97.3-1.47-.44.07-.93.04-1.32.21-2.65,1.18-5.28,2.41-7.91,3.63-1.16.53-3.5-.53-3.58-1.77-.03-.5.46-1.27.91-1.48.37-.17,1.3.14,1.54.51.57.91,1.1.42,1.57.1.23-.15.4-.88.31-.94-2.05-1.41-.03-1.2.59-1.68.8-.61,1.53-1.36,2.16-2.15.5-.64.3-1.23-.6-1.33-.47-.05-.97-.06-1.42.05-1.4.37-2.77.84-4.17,1.2-.31.08-.7-.14-1.06-.23.1-.35.26-.69.29-1.04.09-.94.53-1.71.92-2.55.33-.72,0-1.38-1.09-1.23-.74.1-1.5.02-2.25-.03-1.4-.09-2.8-.17-4.18-.35-.63-.08-1.23-.39-1.84-.6.53-.34,1.04-.94,1.59-.99,1.67-.13,3.35,0,5.02-.08.7-.03,1.39-.33,2.09-.51-.66-.13-1.31-.35-1.97-.37-2.15-.06-4.33.14-6.46-.11-1.99-.24-4.17-.35-5.37-2.53-.23-.41-1.27-.84-1.54-.67-1.67,1.1-3.23.18-4.85,0-2.69-.29-5.27.09-7.23,2.16-.87.92-2.55,1.65-3.65,1.14-.17-.08-.32-.65-.22-.77,1.13-1.33,2.2-2.73,3.51-3.86.99-.86,1.05-1.68.2-2.35-.94-.74-2.1-1.38-3.26-1.63-1.3-.28-2.7-.13-4.06-.05-1.38.08-2.15-.56-2.82-1.72-1.3-2.26-1.68-4.55-.96-7.07.38-1.35-.9-3.06-2.08-3.05-1.31,0-2.63.02-3.92-.16-2.26-.31-3.31-2.52-2.27-4.53.56-1.09,1.34-2.17,1.51-3.33.25-1.72.97-2.25,2.65-2.22,1.06.02,2.15-.47,3.2-.81.39-.13,1.03-.56.99-.76-.23-1.44.95-1.88,1.7-2.62.95-.94,1.28-2.11.08-2.82-1.46-.86-1.22-2.05-1.22-3.29-.01-2.03-1.15-3.82-3.09-4.24-1.45-.31-3.01-.25-4.51-.14-.4.03-.68.94-1.12,1.32-.32.28-.79.41-1.22.51-1.74.38-3.94-.95-5.16,1.39-1.63-.33-2.97.81-4.45.92-1.41.1-1.4.64-1,1.57.37.87.7,1.76-.31,2.29-1.41.75-2.86,1.49-4.39,1.88-1.1.28-1.47.56-1.25,1.69.2,1.04-.23,1.8-1.38,2.11-.9.24-1.73.75-2.62,1.01-1.28.37-2.6.61-3.89.95-.33.09-.62.36-.93.55.21.32.36.72.64.95.28.24.69.36,1.06.45,1.76.42,3.53.79,5.29,1.22,1.27.31,2.45.52,3.58-.51.3-.28,1.22-.33,1.53-.08,1.5,1.2,3.16,1.76,5.05,1.8.34,0,.68.3,1.02.45-.33.23-.66.64-1,.65-2.06.08-3.53,1.16-4.74,2.68-1.3,1.63-2.95,2.43-5.03,2.42-.15,0-.34.02-.46.1-.25.18-.46.41-.69.62.26.24.48.57.78.69.41.17,1.1.4,1.3.21,1.47-1.35,2.24.02,2.84.85.85,1.16,1.61,1.87,3.22,1.94,1.21.05,2.23,1.09,3.72.26.61-.34,1.94.56,2.88,1.04.07.04-.42,1.14-.62,1.77-.17.54-.23,1.11-.44,1.63-.19.47-.41,1.07-.8,1.3-.81.48-1.75.73-2.61,1.12-.75.34-1.51.71-2.18,1.18-.14.09,0,.97.14,1.01,1.64.43,3.3.78,4.96,1.12,1.64.33,3.21.13,4.83-.36,1.1-.33,2.38-.19,3.56-.05.38.04,1.02,1.03.96,1.1-1.08,1.29-.65,3.77-3.1,3.98-.21.02-.38.46-.57.71.32.12.63.25.95.35.15.04.33-.03.47.02.35.12.68.28,1.01.43-.2.37-.37.77-.62,1.1-.24.31-.62.51-.85.83-.7.98-.39,1.79.85,1.9,1.11.1,1.76.56,2.1,1.57-1.17.04-2.43.97-3.46-.4-.06-.09-.49.08-.74.16-.66.21-1.32.45-1.99.67-.51-1.01-1.26-1.78-2.44-1.42-2.66.8-4.86-.47-6.88-1.71-1.32-.81-2.61-1.34-4.07-1.64-.64-.38-1.27-.75-1.91-1.13-.16-.13-.32-.26-.48-.4l.02.02c-.3-.53-.52-1.13-.9-1.58-3.51-4.15-7.01-8.32-10.58-12.41-1.32-1.51-2.84-2.84-4.27-4.25-.66-.93-1.3-1.88-1.99-2.79-1.24-1.65-2.52-3.28-3.78-4.92-.22-.57-.34-1.21-.67-1.71-3.18-4.91-6.33-9.83-8.49-15.31-.16-.41-.57-.72-.87-1.07-.05-.32-.11-.63-.16-.95.02-.47.06-.95.05-1.42-.07-4.59.96-8.73,4.76-11.76.23-.18.33-.51.49-.77,4.73-2.03,9.61-2.14,14.67-1.54,5.13.6,10.14,1.65,15.06,3.07,4.3,1.24,8.65,2.53,12.69,4.43,7.46,3.51,14.73,7.43,22.03,11.27,8.24,4.33,16.25,9.07,23.84,14.45,5.42,3.84,10.55,8.11,15.8,12.2,2.29,1.79,4.56,3.61,6.81,5.45.99,1.41,3.43,1.88,3.72,3.2s1.13,2.82,1.04,3.48-1.13,4.99-1.22,7.06-2.75,7.06-2.75,7.06Z"/><path class="cls-2" d="m118.69,66.32c2.37.67,4.23,1.31,6.14,1.67.92.17,1.94-.2,2.92-.32-.57-.72-1.14-1.43-1.72-2.15-.95-1.19-2.71-1.5-3.3-.59-1,1.53-2.27,1.04-4.05,1.39Z"/><path class="cls-2" d="m135.59,91.03c.68.12,1.45.09,2.01.41.93.53,1.07,1.32.09,2.03-.7.5-1.37,1.1-1.32-.54.02-.61-.52-1.24-.81-1.86l.03-.03Z"/><path class="cls-1" d="m74.65,81.08c-.34-1.01-.99-1.47-2.1-1.57-1.24-.11-1.54-.92-.85-1.9.23-.32.61-.52.85-.83.25-.33.42-.73.62-1.1-.34-.14-.67-.31-1.01-.43-.14-.05-.33.02-.47-.02-.32-.1-.64-.23-.95-.35.19-.25.36-.69.57-.71,2.46-.22,2.03-2.7,3.1-3.98.06-.07-.58-1.06-.96-1.1-1.18-.14-2.46-.28-3.56.05-1.62.48-3.19.69-4.83.36-1.66-.34-3.32-.69-4.96-1.12-.14-.04-.27-.91-.14-1.01.68-.47,1.43-.84,2.18-1.18.86-.39,1.8-.64,2.61-1.12.39-.23.61-.83.8-1.3.21-.52.27-1.1.44-1.63.2-.62.69-1.73.62-1.77-.94-.47-2.27-1.37-2.88-1.04-1.5.83-2.52-.22-3.72-.26-1.61-.06-2.37-.77-3.22-1.94-.6-.83-1.37-2.2-2.84-.85-.21.19-.89-.05-1.3-.21-.3-.12-.52-.45-.78-.69.23-.21.44-.44.69-.62.12-.09.3-.1.46-.1,2.07.02,3.73-.79,5.03-2.42,1.21-1.52,2.67-2.6,4.74-2.68.34-.01.67-.43,1-.65-.34-.16-.67-.45-1.02-.45-1.89-.04-3.55-.6-5.05-1.8-.31-.25-1.23-.2-1.53.08-1.12,1.03-2.31.82-3.58.51-1.76-.43-3.53-.8-5.29-1.22-.37-.09-.78-.22-1.06-.45-.28-.23-.43-.63-.64-.95.31-.19.59-.46.93-.55,1.29-.34,2.61-.58,3.89-.95.9-.26,1.72-.77,2.62-1.01,1.15-.31,1.58-1.07,1.38-2.11-.21-1.13.16-1.41,1.25-1.69,1.53-.39,2.98-1.14,4.39-1.88,1.01-.53.68-1.43.31-2.29-.4-.93-.41-1.47,1-1.57,1.48-.1,2.82-1.25,4.45-.92,1.22-2.34,3.42-1.01,5.16-1.39.43-.09.91-.23,1.22-.51.44-.38.72-1.29,1.12-1.32,1.5-.12,3.06-.18,4.51.14,1.94.42,3.08,2.21,3.09,4.24,0,1.24-.24,2.43,1.22,3.29,1.2.71.87,1.88-.08,2.82-.75.74-1.93,1.18-1.7,2.62.03.2-.6.63-.99.76-1.05.35-2.13.83-3.2.81-1.68-.03-2.4.5-2.65,2.22-.17,1.16-.94,2.25-1.51,3.33-1.04,2.01,0,4.22,2.27,4.53,1.29.18,2.61.17,3.92.16,1.19,0,2.47,1.7,2.08,3.05-.72,2.52-.34,4.81.96,7.07.67,1.16,1.44,1.8,2.82,1.72,1.35-.07,2.76-.22,4.06.05,1.16.25,2.32.89,3.26,1.63.85.67.78,1.49-.2,2.35-1.3,1.14-2.38,2.54-3.51,3.86-.1.12.05.69.22.77,1.1.51,2.78-.21,3.65-1.14,1.96-2.07,4.54-2.45,7.23-2.16,1.62.17,3.18,1.1,4.85,0,.27-.18,1.32.26,1.54.67,1.2,2.17,3.38,2.29,5.37,2.53,2.13.25,4.3.05,6.46.11.66.02,1.31.24,1.97.37-.7.18-1.38.47-2.09.51-1.67.08-3.36-.06-5.02.08-.55.04-1.06.64-1.59.99.61.21,1.21.51,1.84.6,1.39.18,2.79.26,4.18.35.75.05,1.52.13,2.25.03,1.1-.16,1.42.5,1.09,1.23-.38.84-.83,1.61-.92,2.55-.03.35-.19.69-.29,1.04.35.08.75.31,1.06.23,1.4-.36,2.77-.83,4.17-1.2.45-.12.96-.11,1.42-.05.9.1,1.1.69.6,1.33-.63.79-1.36,1.54-2.16,2.15-.62.48-2.64.27-.59,1.68.09.06-.08.79-.31.94-.47.32-1,.81-1.57-.1-.24-.38-1.16-.69-1.54-.51-.45.21-.95.98-.91,1.48.08,1.24,2.43,2.3,3.58,1.77,2.63-1.22,5.26-2.44,7.91-3.63.39-.18.88-.15,1.32-.21-.09.5-.02,1.13-.3,1.47-1.01,1.19-2.17,2.26-3.22,3.42-.2.22-.15.65-.22.98.3.02.64.15.89.05,1.06-.42,2.13-1.45,3.15-.01.9,1.27.57,2.54-.14,3.8-.25.44-.39.95-.58,1.43.3.07.74.3.88.18.48-.42,1.22-.98,1.2-1.46-.07-1.6.8-2.71,1.63-3.86.16-.21.54-.26.83-.38.29.62.83,1.25.81,1.86-.06,1.65.62,1.05,1.32.54.99-.71.85-1.5-.09-2.03-.57-.32-1.33-.28-2.01-.41.29-1.2.49-2.43.91-3.58.18-.47.91-1.12,1.28-1.05.69.13.64.58.87,1.14.45,1.08.54,5.04.57,6.39.04,1.64-1.04,3.37-1.87,4.95-4.88,9.31-10.98,17.87-16.97,26.46-2.81,4.03-6.69,7.3-11.64,8.82.07-.47.07-.96.22-1.39,1.66-4.64,3.33-9.27,5.01-13.9.14-.37.38-.73.43-1.11.05-.34-.1-.7-.16-1.06-.23.2-.53.36-.66.61-.49.91-.89,1.87-1.39,2.78-.28.52-.66.97-1,1.46.09-.63.07-1.3.29-1.89.5-1.34,1.14-2.63,1.67-3.96.12-.3.02-.68.02-1.02-.23.19-.54.33-.67.57-1.61,3.11-3.32,6.17-4.73,9.37-1.29,2.9-2.22,5.95-3.39,8.91-.21.53-.8.9-1.21,1.35-.21-.55-.69-1.18-.58-1.65.7-2.82,1.39-5.66,2.36-8.39.98-2.76,2.28-5.41,3.42-8.12.12-.27.13-.58.2-.88-.26.21-.61.36-.77.62-2.06,3.38-4.11,6.77-6.11,10.19-.83,1.41-1.49,2.91-2.28,4.34-.26.47-.61,1.01-1.06,1.23-.48.23-1.13.17-1.68.09-.12-.02-.28-.78-.15-1.09.71-1.87,1.42-3.74,2.29-5.54,1.6-3.29,3.33-6.51,4.95-9.79.21-.43.03-1.05.02-1.58-.44.28-1.06.45-1.31.85-2.08,3.38-4.13,6.78-6.08,10.24-.43.77-.39,1.68-1.73,1.37-.28-.06-.89.91-1.2,1.48-.17.31-.02.78-.05,1.18-.02.31-.07.62-.13,1.05-2.22-2.55-.69-4.91.28-6.89,1.42-2.89,3.54-5.43,5.34-8.14.53-.79,1.02-1.61,1.44-2.47.15-.3.03-.73.03-1.1-.34.1-.76.11-1,.32-.58.53-1.11,1.14-1.61,1.76-1.54,1.92-3.04,3.87-4.6,5.77-.68.83-2.69.71-1.82,2.64.04.09-.41.54-.67.57-.43.05-1.13.05-1.28-.2-.26-.42-.41-1.17-.19-1.56.74-1.36,1.61-2.67,2.51-3.93,1.88-2.65,3.84-5.23,5.7-7.9.42-.61.56-1.43.76-2.17.02-.05-.6-.39-.65-.34-2.36,2.64-4.73,5.27-6.99,7.99-1.26,1.51-2.27,3.23-3.51,4.76-.26.32-1.05.21-1.6.3-.05-.99-.54-2.27-.09-2.92,1.9-2.76,4.07-5.34,6.16-7.96.94-1.18,1.95-2.31,2.9-3.49.17-.21.18-.56.27-.84-.36-.02-.77-.16-1.08-.04-.35.14-.61.5-.9.77-2.45,2.24-5.28,4.11-6.86,7.2-.43.84-1.38,1.34-2.15.58-.28-.27.01-1.51.41-2.01.89-1.12,2.05-2.01,3.01-3.07.54-.59.9-1.34,1.33-2.02-.75.31-1.5.6-2.23.95-1.13.54-2.22,1.16-3.38,1.64-.25.1-.78-.18-1-.43-.1-.12.14-.69.37-.91.73-.72,1.52-1.38,2.3-2.04,1.33-1.14,2.67-2.26,3.99-3.41.17-.14.24-.4.35-.6-.29-.03-.64-.19-.86-.08-1.44.68-2.82,1.5-4.29,2.12-.85.36-1.81.45-2.73.62-.2.04-.43-.12-.65-.19.1-.3.12-.69.32-.87.27-.25.72-.31,1.04-.52,1.77-1.2,3.54-2.42,5.28-3.67.22-.16.29-.52.44-.79-.31-.05-.63-.19-.92-.13-.46.1-.91.28-1.33.5-1.77.91-3.58,1.75-5.27,2.8-.83.52-1.24.45-1.73-.31-.51-.79-.25-1.36.46-1.77.47-.27,1.14-.29,1.49-.65.51-.52,1.23-1.33,1.12-1.86-.21-1.02-1.11-.42-1.77-.24-.22.06-.54.11-.7,0-.51-.34-.97-.75-1.45-1.14.34-.36.63-.85,1.05-1.06.91-.47,1.94-.73,2.84-1.22.84-.46,1.57-1.1,2.35-1.66-1.01.09-2.01.15-3.02.27-1.01.12-2.01.46-3,.4-.63-.04-1.18-.69-.25-1.28,1.07-.68,2.19-1.26,3.26-1.94.26-.17.41-.52.61-.79-.31-.01-.62-.07-.92-.03-.23.03-.44.25-.66.26-.78.02-1.55,0-2.33-.02.54-.79.99-1.67,1.65-2.33.41-.4,1.15-.5,1.75-.67,1.52-.42,3.06-.79,4.59-1.23.27-.08.47-.36.7-.55-.3-.13-.62-.38-.91-.36-1.73.12-3.46.32-5.19.44-.49.03-1.16.24-.66-.84.44-.94-.19-1.31-1.45-.85-1.15.42-2.22,1.41-3.48.28.15-.29.31-.58.46-.87Zm41.9,37.76c-.31.28-.48.36-.53.48-1.36,3.73-2.71,7.46-4.01,11.21-.04.12.45.42.69.64.43-.5,1.05-.92,1.26-1.5.42-1.17.58-2.43.93-3.63.59-2.06,1.26-4.09,1.85-6.15.08-.27-.1-.61-.19-1.05Zm5.19-2.39c-.13-.25-.23-.45-.32-.64-.19.13-.48.21-.55.39-1.31,3.24-2.6,6.49-3.85,9.76-.08.2.16.53.26.8.22-.18.56-.31.65-.54.77-1.83,1.51-3.68,2.23-5.53.55-1.4,1.06-2.82,1.58-4.23Zm-7.73-37.18c-.27-.19-.76-.64-1.34-.93-.39-.19-.89-.18-1.35-.22-.5-.04-1.01-.03-1.51-.04.09.67-.03,1.5.32,1.97.43.59,1.21,1.04,1.92,1.29,1.2.43,1.99-.26,1.96-2.08Z"/><path class="cls-2" d="m74.2,81.95c1.26,1.12,2.34.14,3.48-.28,1.26-.46,1.89-.09,1.45.85-.5,1.08.17.87.66.84,1.73-.12,3.46-.32,5.19-.44.29-.02.61.23.91.36-.23.19-.44.48-.7.55-1.52.43-3.06.8-4.59,1.23-.61.17-1.35.26-1.75.67-.67.66-1.11,1.54-1.65,2.33.78.01,1.55.04,2.33.02.22,0,.43-.23.66-.26.3-.04.61.01.92.03-.2.27-.34.63-.61.79-1.07.68-2.19,1.26-3.26,1.94-.93.59-.38,1.24.25,1.28.99.06,2-.28,3-.4,1-.12,2.01-.18,3.02-.27-.78.56-1.52,1.2-2.35,1.66-.9.49-1.92.75-2.84,1.22-.42.22-.7.7-1.05,1.06.48.39.94.8,1.45,1.14.16.11.48.05.7,0,.66-.17,1.56-.78,1.77.24.11.53-.61,1.34-1.12,1.86-.35.36-1.02.38-1.49.65-.71.41-.97.98-.46,1.77.49.76.89.83,1.73.31,1.69-1.05,3.5-1.89,5.27-2.8.42-.22.87-.4,1.33-.5.28-.06.61.08.92.13-.14.27-.22.64-.44.79-1.74,1.25-3.51,2.46-5.28,3.67-.32.22-.77.27-1.04.52-.2.19-.22.58-.32.87.22.07.45.23.65.19.92-.17,1.89-.26,2.73-.62,1.47-.62,2.85-1.43,4.29-2.12.22-.11.57.05.86.08-.11.2-.19.46-.35.6-1.32,1.15-2.66,2.27-3.99,3.41-.78.67-1.57,1.33-2.3,2.04-.23.22-.47.8-.37.91.22.26.75.54,1,.43,1.15-.48,2.25-1.1,3.38-1.64.73-.35,1.49-.64,2.23-.95-.44.68-.8,1.43-1.33,2.02-.96,1.06-2.13,1.95-3.01,3.07-.4.5-.69,1.73-.41,2.01.77.76,1.72.26,2.15-.58,1.58-3.09,4.41-4.96,6.86-7.2.29-.27.55-.63.9-.77.31-.12.71.02,1.08.04-.09.28-.1.63-.27.84-.95,1.18-1.96,2.3-2.9,3.49-2.09,2.62-4.26,5.2-6.16,7.96-.45.65.04,1.93.09,2.92.55-.09,1.33.02,1.6-.3,1.24-1.53,2.25-3.24,3.51-4.76,2.26-2.72,4.63-5.35,6.99-7.99.04-.05.66.29.65.34-.21.74-.34,1.56-.76,2.17-1.85,2.66-3.82,5.25-5.7,7.9-.9,1.27-1.77,2.57-2.51,3.93-.21.39-.06,1.14.19,1.56.15.25.85.25,1.28.2.25-.03.71-.49.67-.57-.87-1.93,1.15-1.81,1.82-2.64,1.56-1.9,3.06-3.86,4.6-5.77.5-.62,1.02-1.22,1.61-1.76.23-.21.66-.22,1-.32,0,.37.11.8-.03,1.1-.42.85-.91,1.67-1.44,2.47-1.8,2.71-3.92,5.25-5.34,8.14-.97,1.98-2.5,4.34-.28,6.89.05-.43.11-.74.13-1.05.02-.4-.12-.87.05-1.18.31-.57.92-1.55,1.2-1.48,1.33.31,1.29-.6,1.73-1.37,1.94-3.46,4-6.86,6.08-10.24.25-.4.86-.57,1.31-.85,0,.53.18,1.15-.02,1.58-1.61,3.28-3.35,6.5-4.95,9.79-.87,1.79-1.58,3.67-2.29,5.54-.12.32.04,1.08.15,1.09.55.09,1.21.14,1.68-.09.45-.22.8-.76,1.06-1.23.79-1.43,1.46-2.93,2.28-4.34,2-3.42,4.06-6.8,6.11-10.19.16-.27.51-.42.77-.62-.06.29-.08.61-.2.88-1.14,2.71-2.44,5.36-3.42,8.12-.97,2.74-1.66,5.57-2.36,8.39-.12.47.37,1.1.58,1.65.41-.45,1.01-.82,1.21-1.35,1.17-2.95,2.1-6.01,3.39-8.91,1.42-3.19,3.13-6.26,4.73-9.37.12-.24.44-.39.67-.57,0,.34.1.72-.02,1.02-.53,1.33-1.17,2.62-1.67,3.96-.22.58-.2,1.25-.29,1.89.34-.48.72-.94,1-1.46.49-.91.9-1.87,1.39-2.78.13-.25.44-.41.66-.61.06.35.21.72.16,1.06-.05.38-.29.73-.43,1.11-1.68,4.63-3.36,9.26-5.01,13.9-.16.43-.15.93-.22,1.39,0,0,.02-.02.02-.02-.48.13-.96.25-1.44.38-2.11.93-4.2,1.9-6.33,2.75-.52.21-1.2.04-1.79,0-.54-.04-1.31-.43-1.56-.2-1.4,1.27-2.65-.21-3.97-.11-.37.03-1.12-.56-1.14-.9-.19-2.88-.93-.87-1.54-.21-.21.23-.48.58-.71.57-1.85-.02-3.77.66-5.52-.49-.33-.5-.54-1.2-1-1.47-1.2-.69-2.5-1.23-3.78-1.76-3.15-1.3-6-2.94-7.73-6.06-.33-.6-.89-1.09-1.36-1.61-2.5-2.76-5.24-5.33-6.29-9.1-.28-1.01-1.08-1.55-2.2-1.41-.07-.34-.15-.67-.22-1.01-.21-1.12-.32-2.27-.64-3.36-1.9-6.46-1.7-12.74,1.95-18.56,1.42-2.26,3.32-4.23,4.99-6.33,1.05-.66,2.09-1.33,3.16-1.96.84-.49,1.72-.91,2.58-1.36Zm32.3,51.43c.16.12.33.23.49.35.17-.36.39-.7.52-1.08,1.03-2.99,2.05-5.98,3.04-8.98.08-.24-.12-.57-.19-.87-.32.17-.83.27-.92.52-1.07,3.06-2.08,6.14-3.08,9.22-.08.24.08.55.12.83Z"/><path class="cls-1" d="m62.37,114.53c1.12-.14,1.92.4,2.2,1.41,1.05,3.77,3.79,6.34,6.29,9.1.47.52,1.03,1,1.36,1.61,1.73,3.12,4.58,4.76,7.73,6.06,1.29.53,2.58,1.07,3.78,1.76.46.27.68.97,1,1.47-1.95.68-3.16-.94-4.68-1.55-1.02-.4-2.01-.92-2.95-1.49-1.06-.64-2.21-1.26-3.05-2.14-2.32-2.46-4.7-4.9-6.66-7.64-1.93-2.68-3.37-5.71-5.02-8.59Z"/><path class="cls-1" d="m68.45,85.27c-1.68,2.1-3.58,4.07-4.99,6.33-3.65,5.82-3.85,12.09-1.95,18.56.32,1.09.43,2.24.64,3.36-1.53-.66-1.84-2.25-2.07-3.49-1.07-5.73-1.37-11.49.96-17.04,1.25-2.97,3.57-5.13,5.88-7.25.35-.32,1.01-.32,1.53-.47Z"/><path class="cls-1" d="m21.14,31.2c.3.35.71.66.87,1.07,2.16,5.47,5.31,10.4,8.49,15.31.33.5.45,1.14.67,1.71-1-1.05-2.15-2-2.98-3.18-2.59-3.68-5.1-7.43-6.62-11.71-.35-.99-.3-2.13-.43-3.2Z"/><path class="cls-1" d="m36.94,57.01c1.43,1.41,2.95,2.74,4.27,4.25,3.58,4.09,7.08,8.25,10.58,12.41.38.46.6,1.05.9,1.58-1.31-1.08-2.77-2.01-3.89-3.26-2.51-2.78-4.9-5.67-7.23-8.6-1.63-2.05-3.09-4.25-4.62-6.38Z"/><path class="cls-1" d="m26.29,16.3c-.16.26-.27.59-.49.77-3.8,3.03-4.83,7.17-4.76,11.76,0,.47-.03.94-.05,1.42-1.63-1.84-.99-4.09-.81-6.09.26-3.02,2.78-7.93,6.12-7.87Z"/><path class="cls-1" d="m55.07,76.74c1.46.3,2.75.83,4.07,1.64,2.02,1.23,4.22,2.51,6.88,1.71,1.19-.36,1.94.42,2.44,1.42-1.33-.02-2.77.3-3.96-.12-3.1-1.11-6.08-2.53-9.1-3.86-.19-.09-.23-.52-.34-.79Z"/><path class="cls-1" d="m107.32,134.52c.48-.13.96-.25,1.44-.38-.48.13-.96.25-1.44.38Z"/><path class="cls-1" d="m52.67,75.22c.16.13.32.26.48.4-.16-.13-.32-.26-.48-.4Z"/><path class="cls-1" d="m118.69,66.32c1.77-.36,3.05.14,4.05-1.39.59-.91,2.35-.6,3.3.59.57.72,1.14,1.43,1.72,2.15-.98.12-2,.49-2.92.32-1.92-.36-3.78-1.01-6.14-1.67Z"/><path class="cls-2" d="m116.55,118.85c.09.44.27.78.19,1.05-.59,2.06-1.26,4.09-1.85,6.15-.35,1.2-.51,2.46-.93,3.63-.21.58-.82,1.01-1.26,1.5-.24-.22-.74-.52-.69-.64,1.3-3.75,2.66-7.48,4.01-11.21.05-.12.22-.2.53-.48Z"/><path class="cls-2" d="m121.75,116.45c-.52,1.4-1.03,2.82-1.58,4.23-.72,1.85-1.46,3.7-2.23,5.53-.1.23-.43.37-.65.54-.09-.27-.33-.59-.26-.8,1.25-3.26,2.54-6.51,3.85-9.76.07-.17.36-.26.55-.39.1.19.19.39.32.64Z"/><path class="cls-2" d="m114.02,79.27c.03,1.82-.75,2.51-1.96,2.08-.72-.26-1.49-.7-1.92-1.29-.35-.48-.23-1.3-.32-1.97.5.01,1.01,0,1.51.04.46.04.96.02,1.35.22.57.29,1.07.74,1.34.93Z"/><path class="cls-1" d="m106.49,133.38c-.05-.28-.2-.59-.12-.83,1-3.08,2.01-6.16,3.08-9.22.09-.25.6-.35.92-.52.07.29.27.62.19.87-.99,3-2.01,5.99-3.04,8.98-.13.37-.34.72-.52,1.08-.16-.12-.33-.23-.49-.35Z"/><path class="cls-2" d="m152.2,46.29c.87-4.71,1.73-9.42,2.57-14.14.04-.23-.13-.46-.2-.69-.22.24-.59.48-.64.72-.9,4.75-1.78,9.5-2.62,14.26l-.71,3.5c-.51,1.98-1.02,3.95-1.49,5.93-.16.7-.21,1.4-.33,2.23.22.1.47.21.71.32.12-.17.32-.34.35-.51.2-.92.37-1.83.52-2.75.3-1.75.59-3.51.86-5.26l.97-3.6Z"/></svg>