<?xml version="1.0" encoding="UTF-8"?><svg id="fish" xmlns="http://www.w3.org/2000/svg" viewBox="0 0 622.68 520.47"><defs><style>.cls-1{stroke:#000;stroke-miterlimit:10;}.cls-2{fill:#fff;}.cls-3{fill:#511200;}</style></defs><path class="cls-2" d="m139.7,359.37c-2.77-1.07-5.61-1.33-8.9-2.6-.73-1.54-1.91-3.59-4.82-3.52-.17,0-.41-.21-.52-.39,0,0-8.25-3.06-10.65-4.3s-7.87-4.45-17.91-5.04c-3.4-1.56-6.98-2.86-10.15-4.81-5.94-3.65-11.65-7.69-17.44-11.57-2.92-1.97-17.29-19.3-19.97-21.48-4.83-6.76-8.69-13.99-11.33-21.88-.48-1.44-.89-2.65-3.16-2.76-1.28-.06-2.47-2.5-3.61-3.95-.09-.12.5-.97.93-1.24.53-.34,1.23-.42,2.23-.73-.76-1.35-1.63-2.46-2.05-3.71-.62-1.83-1.28-3.77-1.3-5.67,0,0,1.07-10.54,1.54-14.88,1.28-11.74.23-23.63,3.47-35.11,1.51-5.34,3.32-10.61,5.23-15.83.94-2.56,2.42-4.92,3.68-7.36,4.33-8.42,9.67-16.09,16.97-22.25,1.9-1.61,10.41-8.15,13.21-10.23,6.17-3.12,12.29-6.31,18.41-9.52.8-.42,1.5-1.05,2.7-1.91s4.23-2.02,5.77-2.67c4.93-1.12,9.84-2.35,14.73-3.65.43-.11.98-.5,1.4-.79.71-.49,4.45-1.27,6.25-1.72,6.54-1.62,13.1-3.16,19.72-4.43,5.96-1.14,12.01-1.88,18.01-2.81,0,0,5.32-.22,6.73-.42,3.55-.48,7.11-.91,10.68-1.12,15.32-.93,30.45.51,45.39,3.97,2.21.51,66.07-.92,72.45-2.51,2.59-.64,30.64-3.76,35.72.28,2.21,1.76,16.15,5.65,19.09,6.31,1.65.37,5.01,3.22,4.61,4.38-.45,1.29-1.9,2.24-2.94,3.32-.92.95-1.93,1.81-2.78,2.81-.29.34-.2.98-.39,2.05,7.59-4.24,15.52-2.77,23.34-3.98-1.27,1.36-3.04,2.39-3.06,3.44-.02,1.95.62,4.15,1.69,5.79.66,1.02,1.07,1.86,1.2,3.01.41,3.59,1.16,4.33,4.68,5.06.76.16,1.49.44,2.57.77-2.15,3.05-4.06,5.75-6.2,8.77,1.12.1,1.6.22,2.08.18,6.88-.66,13.76-1.3,20.62-2.06,2.08-.23,3.88.1,5.11,1.84.96,1.35,2.7,2.7,2.45,4.33-.58,3.73,2.09,8.7,3.77,8.96,1.41.45,2.86.8,4.22,1.37,1.45.61,2.82,1.41,4.21,2.15,2.98,1.57,5.61,6.2,5.18,9.53-.05.42.07.79-.04,1.05-1.28,2.87,5.92,10.25,5.92,11.06,1.02,1.62.15,2.22-.64,3.14-.65.76-1.28,1.53-1.95,2.28-1.08,1.26-1.03,3.1,1.94,4.52,1.77.84,3.16,1.5,4.5,2.64-.13,1.03-1.08,1.21-1.26,2.82-.15,1.37-2.09,3.04-1.15,3.87,1.24,1.12,5.18-1.47,5.1-.65-.34,3.39-1.86,6.14-4.48,8.36-2.11,1.79-4.08,3.73-6.12,5.61.09.3.17.6.26.9,1.75.2,3.5.55,5.25.55,2.83,0,5.65-.29,8.48-.38,3.06-.09,4.27,1.06,4.64,3.98.34,2.74-.31,5.17-2.06,7.23-2.1,2.47-4.24,4.93-6.6,7.15-1.3,1.22-2.97,2.21-4.65,2.83-3.6,1.33-3.64,1.21-2.13,4.7.17.38.33.76.51,1.14,1.55,3.37,2.13,3.56,5.72,2.7,3.67-.87,7.37-1.4,11.04.15,1.21.51,2.46,1.27,3.7,1.28,4.28.05,5.99,2.88,6.92,6.29l.18.68c.18.68,1.14,3.98,1.44,5.39,1.91.07,3.62.66,4.83,1.57s1.94,2.2,1.81,3.58c-1.22-.85-2.41-1.45-3.56-1.8-3.45-1.06-6.62.13-9.74,3.6,2.09,2.81,6.49,4.96,8.82,3.62,3.41-1.95,7.27-2.28,10.76-3.74,3.21-1.34,6.37-2.88,9.36-4.65,2.75-1.64,5.14-1.68,7.89.73-2.01,2.4-4.03,4.81-6.32,7.54,1,0,1.49.1,1.93-.02,3.6-.96,7.19-2.01,10.8-2.93.8-.2,1.88-.25,2.5.14.36.22.27,1.56.02,2.27-.48,1.32-1.15,2.58-1.87,3.8-1.53,2.57-2.43,5.27-2.15,8.31.17,1.88,1.05,2.92,3.02,2.89.75-.01,1.51.08,2.25,0,3.89-.43,7.77-.89,11.65-1.36,2.06-.25,2.86.62,2.14,2.57-.34.91-1.01,1.71-1.54,2.55-1.12,1.78-2.24,3.56-3.36,5.34.15.26.31.52.46.78,1.59-.21,3.2-.34,4.77-.66,1.71-.35,2.85.15,3.14,1.89.31,1.86,1.48,2.49,3.15,2.54,4.77.12,9.17,1.47,13.28,3.85,1.18,1.5,6.64,6.68,9.55,11.01s-4.05,8-9.55,8.49c-4.54.22-9.1.28-13.61.73-2.77.28-2.91.72-1.68,3.14,1.57,3.09,3.55,5.99,4.99,9.13,3.04,6.64,4.58,13.53,4.62,20.84.01,2.54,4.67,5.79,7.61,6.62,3.38.96,8.88,6.26,8.42,12.08-.32,4.04.04,8.42.32,21.6s-10.67,20.35-10.67,20.35c-1.28,1.18-12.93.92-13.98-.8-.93-1.54-34.1,15.47-36.78,20.35-.85,1.54-1.75-3.75-1.85-4.32-2.06-11.34-4.54-14.69-5.04-26.16-.1-2.28-.77-6.54-.85-9.04,0,0-.95-2-.99-2.82-.1-2.06-1.35-4.05-1.8-5.99-.5-1.82-1.83-7.46-1.83-7.46-1.35-5.56-3.67-10.67-6.88-15.42-1.2-1.78-4.79-6.01-5.41-6.66-2.72-2.81-5.5-5.58-8.45-8.14-1.14-.99-2.72-1.62-4.2-2.04-2.64-.74-5.33-1.32-8.04-1.73-3.24-.5-10.88-.68-11.96-.99-1.61-.47-3.6-.3-4.83.87s-3.62,3.2-5.95,3.2c-3.24,1.71-6.43,3.5-9.66,5.23-6.39,3.43-12.14,3.28-19.23,5.05-3.01-1.69-7.72,3.01-7.72,3.01-3.2,2.59-28.24,14.31-39.91,16.19-1.73-1.43-11.65-9.42-14.49-9.18-2.7.23-12.42-1.48-15.73-1.03-2.63.36-5.32.3-7.98.48,0,0-7.35-.25-9.45-.64-3.63-.31-7.32-.84-10.8-1.88-6.38-1.91-12.58-4.41-18.94-6.39-2.4-.75-5.03-1.07-7.54-1.02-3.4.06-6.83.45-10.18,1.09-2.07.4-6.71.12-8.23.28-3.72.4-24.4-4.93-25.82-5.35-7.74-2.28-15.98-5.72-21.81-7.32s-36.8-15.91-45.13-18.49Z"/><path class="cls-2" d="m183.35,377.21c-1.32-.45-6.63,2.56-7.74,2.92-5.54,1.8-14.88,7.03-19.86,12.05-2.35,2.3-6.86,6.96-8.56,9.79-6.35,23.62-15.11,2.12-16.8-1.93-.82-3.32-9.32-15.39,4.09-26.02,1.13-1.16,2.48-2.11,3.94-3.33,2.23-1.81,3.66-7.4,5.9-7.63,4.95-.52,35.17,12.28,39.03,14.16Z"/><path class="cls-2" d="m378.88,392.64c3.06.74,4.51,4.17,5.26,5.4,2.3,3.74,9.65,5.32,11.68,9.21,2.81,5.37,3.06,14.85,4.47,20.67,1.77,7.27-7.14,10.89-8.89,8.74-.81-1.24-2.88-2.72-5.55-4.24-7.65-4.36-20.25-9.15-22.26-10.2-5.82-4.55-18.57-12.64-18.57-12.64,0,0-4.49-4.77,5.46-7.59,9.94-2.83,19.42-9.42,19.42-9.42l3.66-2.93,5.32,3Z"/><path class="cls-2" d="m171.09,356.12c11.93-.77,22.21-2.64,35.01-9.79,4.55-5.73,5.38-11.65,14.27-17.93,8.05-5.68,13.96-8.8,19.61-13.69,33.88,29.36,115.52,36.91,149.46,30.12,56.47-11.29,104.24,19.11,109.93,36.89,7.53,23.53-1.51,44.99-1.51,44.99,0,0-9.86-42.32-24.85-61.84-16.19-21.08-35.21-15.74-49.13-11.58-16.41,4.91-55.73,23.77-61.55,25.41-34.73,9.77-74.32-6.52-128.38-13.93-61.81-8.48-27.29,12.24-62.87-8.66Z"/><path d="m503.02,381.08c-.86,4.18-.92,8.71-4.71,11.73-3.24,2.58-4.6,6.43-6.71,9.78-2.28,3.64-4.69,7.22-7.21,10.7-2.26,3.11-4.63,6.14-5.23,10.07-.53,3.45-.94,6.91-1.35,10.38-.1.83-.01,1.69-.01,2.53.24.06.48.11.71.17,2.07-3.21,4.15-6.43,6.22-9.64-1.87,4.48-4.38,8.69-5.96,13.22-1.62,4.65,2.71,5.53.83,12.69,3.39-.19,16.28-2.92,27.01-13.84s13.37-19.17,13.38-22.15c0-.82-.18-1.64-.18-2.46-.01-2.24.2-4.49.01-6.71-.43-4.89-1.08-9.77-1.58-14.66-.4-3.94-.71-7.89-1.06-11.83,1.89,2.65.94,6.16,3.16,8.68,1.31-7.08.12-13.86-2.87-20.22-3.7-7.88-8.98-14.59-15.9-19.85-.21.11-.43.22-.64.34v6.23c-.61-1.88-.51-3.85-1.03-5.64-2.77-9.48-8.06-17.44-15.9-23.37-6.76-5.11-14-9.59-21.02-14.34-1.67-1.13-3.29-1.69-4.42.96-7.9-6.31-15.59-12.45-23.27-18.58-.2.06-.39.13-.59.19,1.84,3.66,3.89,7.27,3.33,12.2-1.06-2.49-1.95-4.45-2.73-6.44-2.46-6.24-2.43-6.28-8.32-8.88-.96-.42-2.13-.37-3.59-.59-.07-.35-.53-1.22-.31-1.88.63-1.89-.34-3.3-1.53-4.17-4.11-3.02-5.45-7.37-6.37-12.01-.1-.49-.34-.94-.46-1.42-.12-.46-.17-.94-.25-1.4.19-.07.37-.14.56-.22,3.09,9.8,7.63,18.44,17.74,22.73-.18-.96-.46-1.9-1.02-2.6-2.13-2.67-4.21-5.39-6.56-7.85-4.76-4.97-7.53-11.14-10.76-17.05-.4-.73-.96-1.36-1.45-2.04-.21.06-.42.11-.64.17.08,2.34,1.31,4.89-.94,6.89-.09-1.96-.32-3.87-.24-5.78.14-3.17-1.35-5.53-3.25-7.86-2.41-2.95-4.88-5.89-6.85-9.13-3.72-6.12-8.64-11.16-13.55-16.27-7.1-7.38-13.71-15.25-21.06-22.36-6.2-5.99-12.9-11.55-19.86-16.65-7.64-5.6-15.75-10.57-23.79-15.59-4.01-2.5-8.29-4.6-12.54-6.69-1.32-.65-2.95-.65-4.8-1.02-2.69-2.22-5.9-4.5-9.65-5.98-2.68-1.06-2.7-1.07-4.17,1.65-.48-.85-.8-1.54-1.25-2.14-.46-.63-.94-1.4-1.6-1.7-4.99-2.28-9.99-4.55-15.05-6.67-18.08-7.56-36.99-12.1-56.21-15.56-24.43-4.39-48.61-2.21-72.77,2.29-10.35,1.93-20.4,4.87-30.47,7.82-13.33,3.9-26.17,8.9-37.74,16.78-15.08,10.28-26.42,23.34-32.17,41.07-4.85,14.97-6.78,30.17-5.93,45.81.09,1.61.67,2.69,2.25,3.18,2.3.72,4.62,1.39,6.88,2.24.74.28,1.3,1.03,1.95,1.57-.85.28-1.78.93-2.54.78-1.94-.38-3.84-1.02-5.7-1.73-1.73-.66-2.31-.38-2.34,1.43-.03,1.58.61,2.41,2.3,2.62,2.31.28,4.61.75,6.86,1.31.51.13.83.98,1.24,1.5-.58.16-1.21.55-1.73.44-1.95-.41-3.85-1.07-5.81-1.47-.83-.17-1.75.04-2.63.08.3,1.38.3,2.94,1.01,4.06.44.71,1.91.83,2.96,1.08,1.29.31,2.66.35,3.92.75.64.2,1.12.93,1.68,1.42-.65.19-1.33.6-1.95.52-1.81-.22-3.61-.61-5.4-.99-1.61-.34-1.96.3-1.56,1.76.63,2.32,1.73,2.99,5.27,3.09.92.03,1.83.11,2.99.19-.93,2.18-2.46,1.68-3.76,1.61-2.63-.15-2.79.02-2.05,2.58.12.4.25.79.39,1.18,5.21,14.75,14.46,26.8,25.71,37.28,12.15,11.31,26.52,18.83,42.69,22.87,5.63,1.41,11.54,2.09,16.62,5.19,10.79,6.58,23.06,6.98,34.86,8.54.73-.93,1.5-1.63,2.41-1.98,1.62-.62,3.32-1.06,5.01-1.51.47-.13,1-.02,1.73-.02-1.25,3.04-4.04,2.26-6.03,3.17,4.98-.4,9.96-.56,14.45-2.88,0-.34,0-.68,0-1.01-1.73-.33-3.46-.65-5.67-1.07,5.57-2.02,9.22,2.84,13.92,2.65-1.46.58-2.9.89-4.33,1.22-5.52,1.25-11.02,2.57-16.56,3.72-1.61.33-3.36.46-4.97.19-8.45-1.41-16.88-2.98-25.32-4.5-.96-.17-1.9-.39-2.85-.58-.08.15-.16.3-.24.45.64.42,1.23.94,1.92,1.23,2.06.89,4.19,1.61,6.22,2.54,5.21,2.38,10.37,4.86,15.57,7.27,1.86.86,3.82,1.53,5.64,2.48,1.5.78,2.79,1.97,4.3,2.74,5.97,3.03,12.62,3.54,19.01,4.99,3.89.89,7.81,1.67,11.85.99.13-.02.3.19.54.37-.96.3-1.75.54-3.03.94,1.11.63,1.64,1.09,2.25,1.24,7.24,1.89,14.4,4.39,21.76,5.43,12.37,1.75,24.75.49,37.03-1.72,2.26-.41,4.59-.56,6.89-.52,4.47.07,23.55,9.89,28.06,10.64.98.44,11.27,1.96,11.76,2,7.46.7,14.9,1.4,22.43.31,3.58-.52,7.32-.55,10.93-.21,8.19.77,16.31.38,24.41-.85,1.08-.16,2.12-.63,3.17-.96,0-.23,0-.47,0-.7-1.64-.44-3.28-.89-4.92-1.33.05-.23.09-.46.14-.69.99.15,1.98.38,2.99.44,2.3.14,4.65.53,6.88.18,2.26-.35,4.47-1.31,6.59-2.27,6.98-3.16,13.89-6.45,20.85-9.65.78-.36,1.69-.48,2.55-.63,1.41-.25,2.96-.16,4.24-.7,3.59-1.52,7.04-3.37,10.61-4.93,2.5-1.09,5.09-2.61,7.69-2.71,6.5-.25,13,.59,19.14,2.82,3.43,1.24,5.96-.2,8.65-1.63,1.29-.69,1.63-1.64.16-2.66-.45-.31-.75-.85-1.12-1.28.12-.14.24-.27.36-.41.84.31,1.67.8,2.53.87.88.07,1.96-.03,2.66-.5,4.52-3.02,6.5-8.04,9.36-12.34,2.43-3.66,2-7.95,2.01-12.11,0-1.18.5-2.36.76-3.54.24.04.48.09.71.13.02.37.18.8.04,1.11-.77,1.72-.61,3.4.04,5.09,1.21,3.14-.64,5.99-.93,8.98-.06.57-.89,1.13-1.46,1.56-2.11,1.58-3.41,4.57-3,6.12-1.11.94-2.08,1.59-2.83,2.45-.98,1.12-1.9,2.33-2.62,3.63-.36.65-.56,1.77-.24,2.35.85,1.52-.06,2.03-1.14,2.37-.77.25-1.66.09-2.47.24-2.04.38-4.07.83-6.1,1.25,0,.25-.01.5-.02.75,1.76,1.2,3.49,2.42,5.27,3.58,5.84,3.85,8.03,3.8,13.81-.25.12-.08.31-.08.55-.13.21.19.45.41.68.64,2.19,2.22,2.11,3.63-.52,5.32-1.16.75-2.56,1.12-3.83,1.71-1.09.5-1.13,1.22-.49,2.22,2.01,3.16,3.94,6.36,5.91,9.54.62,1,1.25,2,1.92,3.08,1.1-1.38,1.99-2.49,2.88-3.61.23.14.46.28.69.42-.45.89-.94,1.77-1.33,2.69-.21.5-.5,1.35-.28,1.56.4.39,1.21.68,1.73.55,1.22-.29,2.38-.86,3.56-1.31.09.16.19.32.28.48-1.77,1.27-3.53,2.53-5.1,3.65.48,1.25,1.04,2.31,1.28,3.44.35,1.67.38,3.4.74,5.07.13.62,1.01,1.67,1.16,1.61,1.11-.46,2.25-1.03,3.12-1.85.35-.33.06-1.34.06-2.39-1.06.58-1.67.92-2.35,1.3,1.34-2.09,2.92-3.96,3.86-6.11,2.34-5.41,4.38-10.95,6.58-16.42.39-.97.97-1.86,1.47-2.79.45.46.56.72.5.93-2.22,6.97-3.95,14.13-7.78,20.49-.67,1.12-1.45,2.2.06,3.21,1.3.87,2.48.45,3.26-.7,2.43-3.56,4.93-7.09,7.08-10.82,1.48-2.56,2.61-5.33,2.32-8.51-.11-1.21.55-2.5.86-3.75.22.06.45.11.67.17-.16,1.13-.38,2.26-.44,3.4-.02.44.22,1.18.51,1.27.45.15,1.32.05,1.53-.27,1.18-1.76,2.87-3.52,3.17-5.47.92-6.15,1.35-12.38,1.86-18.58.39-4.79.62-9.6.92-14.4l.6-.03c.39,3.72.78,7.44,1.16,11.16-.3,4.59-1.83,15.99-1.83,15.99Zm-205.94-7.7c.78.08,1.82.53,2.55.22,3.27-1.4,6.66-2.69,9.6-4.63,3.52-2.33,6.66-5.24,9.91-7.97,2.09-1.76,4.32-3.45,6.06-5.53,4.15-4.96,8.67-9.74,10.3-16.32.13-.52.56-1.01.96-1.4,2.27-2.16,7.84-12.21,7.9-11.97-.8.08-2.25,1.52-2.34,2.07-.42,2.51-.46,5.19-1.44,7.47-1.46,3.43-3.63,6.54-5.4,9.85-3.32,6.19-7.65,11.45-13.59,15.31-1.36.88-2.62,1.92-4.24,3.11.86.63,1.32,1.19,1.87,1.32,2.02.46,4.05.86,6.1,1.11,2.22.28,4.48.22,6.69.57,3.24.52,6.43,1.06,9.56,2.36,2.36.98,5.25.66,7.88,1.04,1.11.16,2.29.44,3.23,1.01,1.67,1,3.18,2.25,4.74,3.39-8.99,9.23-21.06,16.54-26.17,15.56,3.77-2.23,7.65-3.92,11.22-6.78-1.29-.32-2.05-.51-3.32-.83.9-.73,1.44-1.16,1.98-1.6,1.46-1.2,1.47-3.38.02-5.34-1.21-1.62-1.94-1.57-3.97-.34m44.16,25.3c-1.28-.42-7.91,1.79-7.77,3.31.13,1.41.36,2.82.39,4.24.03,1.35-.66,2.32-2,2.73-1.96.6-3.86.77-5.5-.83-2.08-2.03-4.29-3.94-6.23-6.08-2.75-3.03-3.53-3.34-7.47-2.01-.32.11-.62.29-.94.38-1.8.48-3.6.7-5.42.04-1.16-.43-2.35-.95-3.73,0,.46.42.76.77,1.13,1.02,2.48,1.65,4.98,3.27,7.46,4.92,8.35,5.55,13.35,14.16,20.16,15.1,11.37,1.56,20.73,10.99,21.6,9,1.24-2.84,4.7-14.8-.19-23.34-7.51-13.12-4.24-2.54-9.79-11.67-1.68-2.11-.43-1.5-2.32-3.43-.35-.36-1.19-.25-1.8-.36,0,.67-.26,1.49.04,1.97.66,1.08,4.35,5.64,2.39,5Zm-241.04,8.88c2.68-5.81,6.79-10.8,11.01-15.54,6.55-7.35,14.66-12.79,24.28-15.62,1.13-.33,2.22-.82,3.33-1.23-.03-.24-.07-.49-.1-.73-.76-.1-1.51-.24-2.27-.3-1.66-.12-3.36,0-4.98-.34-4.76-.99-9.34-.46-14.02.73-5.32,1.36-10.82,2.43-15.56-2.59,2.25-2.2,3.86-5.24,7.86-5.76-1.37-2.09-2.84-2.14-4.34-.79-2.84,2.57-6.01,1.71-14.85,12.07s8.47,32.61,9.64,30.09Zm171.23-245.52c1.1.78,1.79,1.44,2.6,1.82,7.11,3.3,14.01,6.95,20.38,11.56,2.06,1.49,4.32,2.91,7.11,2.63,3.72-.37,7.48-.57,11.16-1.18,4.58-.76,9.16-1.68,13.65-2.85,4.11-1.08,6.88-5.08,6.89-9.34-2.47-.52-4.89-.66-7.25.59-2.2,1.17-4.44,2.29-6.71,3.32-.5.23-1.5.19-1.76-.13-.34-.42-.2-1.26-.23-1.91-.01-.27.06-.54.11-.88-20.22,4.16-26.17,4.76-29.02,2.53,4.35-.55,8.28-1.4,12.23-1.46,8.96-.14,16.95-3.1,24.57-7.47,2.73-1.56,2.77-1.56.97-4.28-.37-.55-.54-1.29-1.01-1.7-.6-.52-1.46-1.19-2.11-1.1-2.63.35-5.25.88-7.84,1.5-6.06,1.45-12.04,3.31-18.15,4.4-7.94,1.41-15.99,2.23-23.98,3.32-.37.05-.72.29-1.6.65Zm-36.23-16.92c.01.28.03.56.04.83,1.52.8,3.01,1.69,4.58,2.39,5.88,2.65,11.94,2.39,18.13,1.28,5.56-1,11.19-1.66,16.78-2.5,3.78-.57,7.59-1.04,11.32-1.86,4.17-.92,4.58-1.66,4.47-5.84,0-.17-.06-.35,0-.5.28-.83.37-1.97.95-2.36.43-.28,1.61.31,2.29.75,1.35.88,2.64,1.77,4.38,1.27,2.14-.62,2.46-1.61,1.03-3.33-1.15-1.39-2.69-2.62-3.37-4.21-.69-1.61-1.58-1.99-3.03-1.78-3.54.52-7.15.8-10.59,1.69-10.96,2.81-21.91,5.72-32.77,8.88-4.84,1.41-9.47,3.51-14.2,5.29Zm86.36,48.02c-.08.28-.16.55-.24.83,1.44,1.21,2.87,2.42,4.31,3.62,2.02,1.68,3.82,3.95,6.14,4.88,2.84,1.13,6.13,1.58,9.21,1.54,7.97-.11,15.95-.57,23.91-1.04,3.05-.18,6.08-.74,9.1-1.26,1.52-.26,1.94-1.38,2.11-2.92,1.93-9.55-13.6-9.5-17.54-9.19-12.64,1.21-24.83,2.38-37.01,3.55Zm-15.85-11.15c2.48,2.09,4.51,3.89,6.63,5.58,2.95,2.36,6.31,3.02,10.07,2.63,7.69-.81,15.41-1.26,23.09-2.13,4.28-.48,8.51-1.43,12.72-2.34,1.57-.34,2.95-1.29,3.13-3.15.42-4.3-3.05-7.58-7.33-7.08-6.27.74-12.56,1.31-18.83,2.09-9.31,1.16-18.61,2.45-27.91,3.7-.3.04-.58.24-1.57.69Zm-50.67-28.25c-.02.3-.04.59-.06.89.48.42.9.98,1.45,1.24,5.16,2.48,10.39,4.14,16.33,3,5.7-1.1,11.5-1.65,17.27-2.42,3.62-.49,7.27-.83,10.86-1.48.83-.15,2.07-1.25,2.1-1.96.08-2.02-.21-4.1-.67-6.09-.25-1.09-.49-1.84.56-2.59.3-.21.52-.95.37-1.25-.17-.33-.83-.65-1.21-.59-1.55.25-3.18.42-4.6,1.04-4.88,2.11-9.75,3.93-15.15,4.47-4.69.47-9.32,1.7-13.95,2.69-4.44.95-8.85,2.03-13.27,3.05Zm95.49,64.78c0,.18,0,.36-.01.53,5.74-.9,11.49-1.74,17.22-2.72,3.55-.61,5.62-3.05,6.87-6.25,1.88-4.81,1.21-5.66-3.81-5.08-9.25,1.07-18.51,2-27.74,3.17-4.81.61-4.77.79-1.85,4.91,2.28,3.21,4.65,6.24,9.33,5.44Zm23.25,33.46c2.2,2.79,4.08,5.25,6.06,7.63.29.35,1.09.49,1.61.42,3.62-.47,7.29-.77,10.8-1.67,1.68-.43,3.47-1.79,4.42-3.24.82-1.26.99-3.39.53-4.85-.21-.69-2.58-1.13-3.91-1.01-5.86.54-11.71,1.33-17.56,2.05-.39.05-.76.25-1.96.66Zm-13.35-18.59l-.33.54c1.26,1.7,2.43,3.47,3.8,5.08.67.78,1.62,1.66,2.56,1.82,6.24,1.04,12.36.19,18.34-1.2.2-1.14.39-2,.49-2.87.06-.51.18-1.28-.08-1.5-.33-.27-1.06-.2-1.56-.07-.51.14-.95.53-1.36.77-2.94-2.46-6.21-2.22-9.53-1.92-2.02.19-4.08.29-6.1.18-2.09-.12-4.16-.55-6.23-.84Zm-262.52,197.58c-4.52.39-13.8-5.87-17.04-8.65-3.06-2.62-12.04-17.47-2.3-32.8,4.08-6.85,9.58-12.56,15.12-18.22,1.13-1.16,2.48-2.11,3.94-3.33,2.23-1.81,3.94-5.33,5.7-6.74s.08-.28-3.81-2.72c-2.77-1.07-5.54-2.14-8.83-3.41-.73-1.54-1.91-3.59-4.82-3.52-.17,0-.41-.21-.52-.39,0,0-8.25-3.06-10.65-4.3s-7.87-4.45-17.91-5.04c-3.4-1.56-6.98-2.86-10.15-4.81-5.94-3.65-11.65-7.69-17.44-11.57-2.92-1.97-17.29-19.3-19.97-21.48-4.83-6.76-8.69-13.99-11.33-21.88-.48-1.44-.89-2.65-3.16-2.76-1.28-.06-2.47-2.5-3.61-3.95-.09-.12.5-.97.93-1.24.53-.34,1.23-.42,2.23-.73-.76-1.35-1.63-2.46-2.05-3.71-.62-1.83-1.28-3.77-1.3-5.67,0,0,1.07-10.54,1.54-14.88,1.28-11.74.23-23.63,3.47-35.11,1.51-5.34,3.32-10.61,5.23-15.83.94-2.56,2.42-4.92,3.68-7.36,4.33-8.42,9.67-16.09,16.97-22.25,1.9-1.61,10.41-8.15,13.21-10.23,6.17-3.12,12.29-6.31,18.41-9.52.8-.42,1.5-1.05,2.7-1.91s4.23-2.02,5.77-2.67c4.93-1.12,9.84-2.35,14.73-3.65.43-.11.98-.5,1.4-.79.71-.49,4.45-1.27,6.25-1.72,6.54-1.62,13.1-3.16,19.72-4.43,5.96-1.14,12.01-1.88,18.01-2.81,0,0,5.32-.22,6.73-.42,3.55-.48,7.11-.91,10.68-1.12,15.32-.93,30.45.51,45.39,3.97,2.21.51,3.72.12,4.8-1.88.27-.51.62-.99.96-1.46,4.71-6.51,10.03-12.5,16.35-17.43,4.78-3.73,10.05-6.83,15.06-10.26.86-.59,1.56-1.4,2.63-2.38.59-.56,8.06-4.67,7.29-4.23l5.7-3.18c1.47-.88,4.93-3.03,4.93-3.03,1.46-.94,8.1-1.31,9.22-1.99.78-.32,10.98,4.49,20.19,5.08,8.18-3.22,16.24-6.07,17.3,5.63-.46,1.92-.41,3.95-.54,5.49.18,1.71.06,3.04.48,4.17,2.19,5.9,4.97,11.46,10.05,15.5,2.21,1.76,4.37,3.6,6.69,5.21.95.66,2.25,1.05,3.42,1.12.6-.15,3.54.67,3.03,1.66s-1.01,1.92-1.59,2.83q-1.64,2.58,1.29,3.25c1.65.37,5.01,3.22,4.61,4.38-.45,1.29-1.9,2.24-2.94,3.32-.92.95-1.93,1.81-2.78,2.81-.29.34-.2.98-.39,2.05,7.59-4.24,15.52-2.77,23.34-3.98-1.27,1.36-3.04,2.39-3.06,3.44-.02,1.95.62,4.15,1.69,5.79.66,1.02,1.07,1.86,1.2,3.01.41,3.59,1.16,4.33,4.68,5.06.76.16,1.49.44,2.57.77-2.15,3.05-4.06,5.75-6.2,8.77,1.12.1,1.6.22,2.08.18,6.88-.66,13.76-1.3,20.62-2.06,2.08-.23,3.88.1,5.11,1.84.96,1.35,2.7,2.7,2.45,4.33-.58,3.73,2.09,8.7,3.77,8.96,1.41.45,2.86.8,4.22,1.37,1.45.61,2.82,1.41,4.21,2.15,2.98,1.57,5.61,6.2,5.18,9.53-.05.42.07.79-.04,1.05-1.28,2.87,5.92,10.25,5.92,11.06,1.02,1.62.15,2.22-.64,3.14-.65.76-1.28,1.53-1.95,2.28-1.08,1.26-1.03,3.1,1.94,4.52,1.77.84,3.16,1.5,4.5,2.64-.13,1.03-1.08,1.21-1.26,2.82-.15,1.37-2.09,3.04-1.15,3.87,1.24,1.12,5.18-1.47,5.1-.65-.34,3.39-1.86,6.14-4.48,8.36-2.11,1.79-4.08,3.73-6.12,5.61.09.3.17.6.26.9,1.75.2,3.5.55,5.25.55,2.83,0,5.65-.29,8.48-.38,3.06-.09,4.27,1.06,4.64,3.98.34,2.74-.31,5.17-2.06,7.23-2.1,2.47-4.24,4.93-6.6,7.15-1.3,1.22-2.97,2.21-4.65,2.83-3.6,1.33-3.64,1.21-2.13,4.7.17.38.33.76.51,1.14,1.55,3.37,2.13,3.56,5.72,2.7,3.67-.87,7.37-1.4,11.04.15,1.21.51,2.46,1.27,3.7,1.28,4.28.05,5.99,2.88,6.92,6.29l.18.68c.18.68,1.14,3.98,1.44,5.39,1.91.07,3.62.66,4.83,1.57s1.94,2.2,1.81,3.58c-1.22-.85-2.41-1.45-3.56-1.8-3.45-1.06-6.62.13-9.74,3.6,2.09,2.81,6.49,4.96,8.82,3.62,3.41-1.95,7.27-2.28,10.76-3.74,3.21-1.34,6.37-2.88,9.36-4.65,2.75-1.64,5.14-1.68,7.89.73-2.01,2.4-4.03,4.81-6.32,7.54,1,0,1.49.1,1.93-.02,3.6-.96,7.19-2.01,10.8-2.93.8-.2,1.88-.25,2.5.14.36.22.27,1.56.02,2.27-.48,1.32-1.15,2.58-1.87,3.8-1.53,2.57-2.43,5.27-2.15,8.31.17,1.88,1.05,2.92,3.02,2.89.75-.01,1.51.08,2.25,0,3.89-.43,7.77-.89,11.65-1.36,2.06-.25,2.86.62,2.14,2.57-.34.91-1.01,1.71-1.54,2.55-1.12,1.78-2.24,3.56-3.36,5.34.15.26.31.52.46.78,1.59-.21,3.2-.34,4.77-.66,1.71-.35,2.85.15,3.14,1.89.31,1.86,1.48,2.49,3.15,2.54,4.77.12,9.17,1.47,13.28,3.85,1.18,1.5,6.64,6.68,9.55,11.01s-4.05,8-9.55,8.49c-4.54.22-9.1.28-13.61.73-2.77.28-2.91.72-1.68,3.14,1.57,3.09,3.55,5.99,4.99,9.13,3.04,6.64,4.58,13.53,4.62,20.84.01,2.54,4.67,5.79,7.61,6.62,3.38.96,8.88,6.26,8.42,12.08-.32,4.04.04,8.42.32,21.6s-10.67,20.35-10.67,20.35c-1.28,1.18-2.52,2.41-3.84,3.54-2.36,2.02-15.27,11.53-17.29,9.71-.31.8-27.3,12.93-27.34,13.16-2.94-2.1-4.28.5-6.05,1.93-.43-.81-.71-1.31-.96-1.82-3.55-7.12-.9-16.08-1.01-16.65-2.06-11.34.19-9.13-.31-20.61-.1-2.28-3.65-11.22-3.69-12.05-.1-2.06-.35-4.05-.8-5.99-.5-1.82-1.83-7.46-1.83-7.46-1.35-5.56-3.67-10.67-6.88-15.42-1.2-1.78-4.79-6.01-5.41-6.66-2.72-2.81-5.5-5.58-8.45-8.14-1.14-.99-2.72-1.62-4.2-2.04-2.64-.74-5.33-1.32-8.04-1.73-3.24-.5-10.88-.68-11.96-.99-1.61-.47-3.6-.3-4.83.87s-3.62,3.2-5.95,3.2c-3.24,1.71-6.43,3.5-9.66,5.23-6.39,3.43-11.01,6.11-18.1,7.87-1.84.46.91,1.08,1.69,2.3,2.37,3.72,9.27-1.22,11.48,2.59,2.6,4.47,7.51,2.46,8.85,8.47,1.84,8.3,4.73,11.18,4.52,19.58-.26,10.49-.77,21.96-8.09,29.55-1.42,3.59-5.76.18-6.49-1.29-1.11-2.23-2.2-4.48-3.48-6.62-.42-.69-7.07-4.54-8.66-8.09-2.47-7.65-17.55-13.66-20.71-16.56-7.72-4.52-10.92-4.06-19.39-11.11-1.73-1.43-20.12-11.87-22.96-11.63-2.7.23-12.42-1.48-15.73-1.03-2.63.36-5.32.3-7.98.48,0,0-7.35-.25-9.45-.64-3.63-.31-7.32-.84-10.8-1.88-6.38-1.91-12.58-4.41-18.94-6.39-2.4-.75-5.03-1.07-7.54-1.02-3.4.06-6.83.45-10.18,1.09-2.07.4-6.71.12-8.23.28-3.72.4-24.4-4.93-25.82-5.35-7.74-2.28-15.55-4.35-23.32-6.51-1.5-.42-2.46,0-2.75,1.59-.21,1.14-.63,1.93-2,1.46-1.32-.45-2.42-.02-3.54.34-5.54,1.8-13.73,7-18.72,12.01-2.35,2.3-3.62,8.63-5.32,11.46-4.37,7.27-12.99,27.11-12.99,27.11Zm386.8-43.58c-.27,3.04.35,5.15,1.45,6.27s4.46,1.87,6.13.93c.05-.32-2.05-1.38-2.59-1.91-1.3-1.28-3.79-3.13-5-5.29Zm6.33-53.56c-2.85-2.86-6.35-3.82-10.27-3.52-3.81.3-7.63.59-11.43.97-1.77.17-3.52.53-5.63.87,1.01,1.62,1.86,2.73,2.45,3.97.81,1.74,2.02,2.49,3.94,2.35,4.64-.33,9.3-.57,13.94-.87,1.51-.1,3.01-.26,4.84-.41-1.42,2.27-2.81,3.21-5.27,3.19-4.22-.03-8.46.46-12.67.87-1.99.2-2.27.84-1.47,2.67.54,1.22,1.18,2.38,1.78,3.57.61,1.2,1.53,1.71,2.87,1.32,5.64-1.66,11.61-2.19,16.92-4.98,6.07-2.27,2.87-7.1,0-10Zm-108.27-113.76c-1.15,1.78-3.09,2.86-5.2,3.59-1.27.43-2.71.62-4.05.51-1.27-.1-2.51-.72-3.8-1.13.18-.08.38-.2.59-.25.65-.15,1.3-.31,1.96-.38,4.8-.48,8.22-3.38,11.44-6.58.41-.4.62-1.76.44-1.87-1.62-.95-1.57-2.29-1.38-3.88.07-.6-.54-1.28-.84-1.93-1.2-1.1-1.13.29-1.73,1.05-.5.64-.94,1.36-1.41,2.06-3.77,5.62-8.67,9.39-15.73,9.65-3.58.13-7.16.21-10.73.35-.86.03-1.72.21-2.71.33.14.63.12,1.01.3,1.24,3.19,4.1,6.65,7.44,12.47,7.58,7.73.18,15.43,1,23.16,1.48.94.06,1.9-.29,2.85-.45-.24-.17-.48-.35-.72-.52-.14-1.89-.86-3.99-.25-5.6.7-1.88.85-3.03-1.52-4.24-1.01-.63-2.58-1.88-3.13-1.02Zm63.49,98.06l-.18.82c1.49,1.26,3.07,2.44,4.46,3.8,2.55,2.49,5.53,2.7,8.55,1.43,2.92-1.22,4.94-3.53,6.59-6.85-6.86.28-13.14.54-19.42.8Zm-35.78-35.91l-.26.46c-.7-.25-1.43-.44-2.1-.75-3.01-1.37-6.14-1.93-9.44-1.5-3.26.42-3.63,1.2-1.68,3.81,1.13,1.51,2.2,3.22,4.52,2.96,2.86-.32,5.74-.6,8.59-1.01.76-.11,1.72-.41,2.13-.96,1.22-1.63-1.31-5.86-3.9-6.02.82,1.15,1.49,2.08,2.15,3Zm38.73,18.4c-5.69.57-10.51,2.94-15.68,6.04,2.52,1.85,4.22,4.09,7.05,2.93,4.09-1.67,6.36-5.3,8.62-8.98Zm-24.71.77c2.98,2.05,4.76,1.86,7.11-.26,2.46-2.21,4.93-4.4,7.45-6.54,1.24-1.05,2.59-1.97,3.89-2.95l-.53-.82c-5.55,4.07-12.22,6.22-17.92,10.56Zm12.57,121.54c1.5-3.19,2.86-6.06,4.21-8.94-.15-.12-.3-.23-.45-.35-.51.34-1.06.64-1.54,1.03-.57.47-1.03,1.09-1.64,1.5-2.85,1.88-3.12,3.53-.58,6.76Zm-10.05-42.48c-.07-.26-.14-.53-.21-.79-.62-.07-1.3-.35-1.83-.17-1.7.58-3.38,1.27-4.99,2.06-.33.16-.6,1.32-.44,1.44,1.67,1.34,3.11-.13,4.56-.64,1.07-.37,1.95-1.25,2.92-1.9Zm-122.86-3.8c-.28,1.5-.54,2.83-.84,4.42,2.37-1.25,2.55-2.39.84-4.42Z"/><path d="m139.79,306.37c-9.23.45-18.46.83-27.69,1.36-7.63.44-15.18.31-22.38-2.67-10.43-4.32-18.38-11.53-24.32-21.07-1.62-2.61-3.31-5.2-5.25-7.57-3.38-4.12-5.42-8.76-6.08-14-.38-3.03-.04-3.29,2.98-3.31,10.41-.06,20.83.24,31.22-.26,18.95-.93,37.9-1.79,56.61-5.55,15.27-3.06,30.72-5.11,46.25-6.45,5.14-.44,10.23-1.35,15.36-1.96,2.97-.35,3.25,0,3.74,2.9,1.29,7.72,2.04,15.5-.99,22.93-7.53,18.53-20.3,31.33-40.54,35.17-5.44,1.03-11.09,1-16.65,1.25-4.07.18-8.16.04-12.24.04,0-.27-.01-.54-.02-.8Zm-28.12-.88c4.39-.49,8.15-1.05,11.92-1.29,5.72-.36,11.46-.57,17.19-.69,2-.04,3.58-.53,4.7-2.23.64-.97,1.36-1.89,1.92-2.91,3.42-6.14,7.19-12.02,12.74-16.49,1.35-1.09,2.3-2.18,2.62-3.96.41-2.32.22-2.86-2.09-2.47-7.54,1.28-15.21,2.15-22.53,4.24-11.75,3.36-20.71,10.44-25.21,22.28-.36.95-.69,1.91-1.27,3.52Zm35.75-1.22c.12.26.24.52.35.79,12.52.39,24.34-2.52,35.31-8.62,6.06-3.37,10.81-8.36,15.59-13.97-10.98-2.84-21.09-2.67-31.1,1-4.04,1.49-7.85,3.42-10.46,6.94-3.36,4.53-6.47,9.23-9.69,13.86Zm-1.83-44.06c-.03-.75-.04-1.5-.11-2.25-.22-2.39-.64-2.7-3-2.35-.91.14-1.81.27-2.72.37-3.89.45-7.78.86-11.67,1.34-1.2.15-2.67.51-1.82,2.13,2.38,4.5,5.01,8.88,8.96,12.21,2.26,1.9,4.07,1.63,6.15-.54,2.91-3.04,4.28-6.7,4.2-10.9Zm38.71-5.08c0-1.25-.02-2.5,0-3.75.02-1.35-.57-2.04-1.96-1.9-4.97.51-9.94,1-14.9,1.57-1.65.19-2.14,1.11-1.04,2.36,3.49,3.99,7.14,7.85,10.79,11.7,1.06,1.11,2.09.73,3.26-.22,3.18-2.57,4.17-5.88,3.85-9.77Zm-59.15,13.8c.05,0,.1-.01.15-.02-.29-2.56-.47-5.13-.88-7.67-.48-2.96-.87-3.16-3.77-2.89-3.07.29-6.13.53-9.2.76-2.4.17-2.86.7-1.57,2.68,2.11,3.27,4.44,6.42,6.85,9.48,1.11,1.41,2.54,2.66,4.03,3.67,2.11,1.43,4.22.27,4.38-2.27.08-1.24.01-2.5.01-3.74Zm21.9-13.68c2.03,2.77,3.78,5.27,5.67,7.66,1.49,1.88,3.08,3.7,4.79,5.4,1.44,1.43,2.47,1.26,3.72-.33.46-.58.84-1.24,1.13-1.92,1.7-4.06,1.35-8.31.98-12.53-.12-1.4-1.13-1.4-2.22-1.2-4.09.74-8.18,1.44-12.26,2.18-.46.08-.88.36-1.8.75Zm-54.89,4.92c.31,1.05.47,1.83.78,2.55,2.2,5.05,6.29,8.54,10.23,12.11,1.38,1.25,2.28.12,2.81-1.15,1.65-3.93,2.02-8.04,1.53-12.25-.17-1.47-.94-1.93-2.37-1.85-3.49.19-6.99.25-10.48.38-.72.03-1.44.12-2.51.2Zm104.62-12.17c-2.73.23-5.46.52-8.19.67-1.66.09-1.85,1.04-1.3,2.17,1.98,4.05,4.32,7.9,7.98,10.67,2.23,1.68,4.01,1.09,4.71-1.59.64-2.47,1.11-5.03,1.28-7.58.31-4.64.19-4.65-4.48-4.34Zm-113.73,12.64c0,.05,0,.11,0,.16-1.67,0-3.33-.05-5,.01-2.01.07-2.67.85-1.79,2.69,1.43,2.98,2.94,5.99,4.87,8.65,1.94,2.69,4.37,2.44,6.35-.27,2.05-2.81,2.58-6.08,2.67-9.47.04-1.3-.67-1.78-1.86-1.78-1.75,0-3.5,0-5.25,0Zm-14.07.45s0-.05,0-.07c-1.08,0-2.16,0-3.24,0-2.7-.03-3.5.9-2.14,3.27,1.92,3.36,4.16,6.58,6.59,9.61,1.62,2.02,3.02,1.58,4.03-.81,1.41-3.33,1.38-6.83,1-10.31-.07-.63-1.23-1.46-2-1.61-1.36-.26-2.81-.07-4.23-.07Zm-6.39,7.95c-.14-1.49-.18-3.08-.45-4.62-.46-2.61-1.73-3.53-4.3-3.5-1.44.02-1.99.67-1.7,2.02.37,1.7.67,3.43,1.25,5.06.72,2.02,1.64,3.97,2.59,5.89.2.4.98.83,1.35.73.39-.1.81-.8.88-1.29.21-1.39.26-2.8.38-4.3Zm144.43-13.87c.35-.09.7-.19,1.05-.28-.21-2.42-.25-4.87-.76-7.22-.11-.52-1.86-.84-2.88-.93-.35-.03-1.22,1.05-1.12,1.42.72,2.61,2.11,4.89,3.72,7.01Z"/><path d="m312.41,340.4c1.44-1.08,1.31-2.36-.38-2.97-3.26-1.17-6.58-2.16-10.15-3.31.79-2.15,1.52-4.76,3.87-6.28,4.45-2.88,4.75-7.57,5.38-12.04.39-2.77.46-5.44,1.97-8.03,1.57-2.7,2.59-5.75,3.56-8.74.26-.79-.22-2.34-.89-2.81-3.7-2.64-7.57-5.06-11.86-7.88-1.12,5.22-2.57,10.12-1.68,15.51-3.52-2-2.77,2.13-4.76,3.42.61-2.23,1.07-4.06,1.62-5.85.67-2.19.92-4.24-1.18-5.88-.39-.3-.55-.88-.96-1.58,3.68,1.53,3.8,1.55,4.62-2.14.48-2.17.52-4.44.78-6.67.35-2.95.81-5.89,1.03-8.85.1-1.28-.02-2.7-.48-3.89-1.09-2.84-1.14-5.7-.71-8.61.84-5.57,1.72-11.13,2.61-16.89,1.01-.07,1.56.75,1.6,1.95.03,1.02-.14,2.04.03,3.14,2.79-2.32,6.09-4.26,5.67-8.53-.35-3.53-.91-7.05-1.34-10.57-.05-.45.02-.96.19-1.38.51-1.26,1.09-2.49,1.74-3.93.87.17,1.72,1.02.86,1.9-1.69,1.74-.91,2.67.59,3.74.45.32.72.89,1.26,1.59-2.44.33-2.14,2.03-2.23,3.66-.16,2.74-.49,5.47-.76,8.2-.28,2.79,0,3.23,2.51,2.34,4.42-1.57,8.44-1.54,12.08,1.75.2.18.6.13,1.48.28-.61-5.28-1.19-10.29-1.78-15.39.03,0,.4-.04.58.13,1.77,1.63,3.58,3.22,5.22,4.98.74.79,1.36,1.86,1.59,2.91.79,3.57,1.32,7.19,2.08,10.77.2.92.77,1.84,1.4,2.57,3.86,4.48,6.05,9.78,7.18,15.45.85,4.29.51,8.63-2.04,12.49-.83,1.25-1.73,2.47-2.37,3.82-3.15,6.64-11.24,8.98-16.92,7.89-.74-.14-1.48-.24-2.22-.35-1.17-.17-1.84.25-2.19,1.46-.77,2.63-1.64,5.23-2.56,7.81-.48,1.34-.29,2.37.68,3.42.63.68,1.03,1.59,1.69,2.66-3.81-.18-4.46,2.75-5.48,4.85-1.07,2.2-1.68,4.75-1.91,7.19-.13,1.37.83,2.91,1.52,4.25.35.68,1.2,1.09,1.77,1.59-.86,1.37-1.58,2.5-2.49,3.95-1.39.02-3.02.07-3.26-2.47-.12-1.32-1.25-1.61-2.22-.81-.85.71-1.43,1.74-2.13,2.64.77.49,1.49,1.15,2.33,1.45,1.85.68,3.74,1.31,5.67,1.67.56.1,1.53-.65,1.92-1.26.7-1.1,1.28-2.34,1.61-3.6.44-1.72.6-3.51.91-5.47,1.73,1.22,2.26,2.81,1.59,4.67-.81,2.27-1.78,4.48-2.76,6.69-.99,2.24-1.7,4.72-4.54,5.51-.44.12-.79.84-1.05,1.34-3.08,5.86-7.43,10.29-13.59,13.03-1.87.83-3.14,2.91-4.82,4.24-4.68,3.7-9.25,7.65-14.84,9.9-4.69,1.88-9.6,3.24-14.43,4.78-.5.16-1.11-.04-1.76-.36,2.22-.91,3.92-2.97,6.65-2.63.56.07,1.23.22,1.68,0,4.69-2.32,9.39-4.65,14-7.13,1.28-.69,2.29-1.88,3.13-2.58-.28-1.36,7.7-7.59,9.83-8.46,5.49-2.24,14.79-13.11,16.27-14.23Zm8.84-76.2c-2.27-3.5,2.18-8.55,5.51-8.19.55.06,1.21.22,1.59.57,5.42,5.07,10.64,10.25,9.83,18.63-.11,1.17-.5,2.87,1.2,3.09,1.64.21,2.83-1.01,3.17-2.62.25-1.19.19-2.48.08-3.71-.42-4.88-3.22-8.79-5.52-12.87-.61-1.08-1.81-2.29-2.93-2.54-3.25-.73-5.51-2.98-8.21-4.56-1.85-1.09-4.27-2.23-6.2-1.92-3.7.6-6.89,2.81-9.51,5.6-.39.42-.71,1.26-.57,1.76.5,1.73,1.22,3.39,1.87,5.13.7-.03,1.45-.06,2.46-.11-.57,1.11-1,1.9-1.4,2.72-4.01,8.21.74,17.07,6.84,19.41,3.98,1.53,7.93.76,11.78-.3,5.09-1.4,6.23-3.26,5.88-8.51-.04-.58-.07-1.16-.14-1.74-.67-5.99-3.31-10.97-7.96-14.78-3.17-2.6-5.78-1.65-6.87,2.28-.25.91-.59,1.79-.89,2.68Zm-12.3,14.02c-.59,4.07,3.69,9.01,8.11,9.77-2.58-3.11-5.3-6.38-8.11-9.77Zm21.12-30.58c-.3,1.88.9,4.77,2.31,5.51,1.04.55,1.78.35,1.87-.96.15-2.01-2.02-4.34-4.19-4.55Zm-2.58,41.95c-2.59-.22-5.06-.43-7.52-.64,3.21,1.66,5.35,1.76,7.52.64Z"/><path d="m174.27,207.03c.26-8.13,1.3-15.98,5.71-23.21,4.61-7.55,16.34-10.4,23.95-2.39,14.34,15.09,12.3,35.55,1.26,48.06-2.87,3.25-6.5,5.15-10.68,6.05-6.72,1.44-12.7-1.66-16.4-8.12-3.06-5.36-3.39-11.24-3.83-17.14-.08-1.08-.01-2.17-.01-3.25Zm14.73,27c.23-.47.37-.62.36-.76-.06-.74-.12-1.49-.26-2.22-1.46-7.79-2.24-15.64-1.95-23.58.12-3.32.22-3.48,3.35-4.17,2.69-.59,3.61-1.49,3.64-4.2.07-5.36-.61-10.64-2.66-15.63-1.97-4.79-4.03-5.16-7.59-1.36-3.76,4.01-5.69,8.9-6.55,14.29-.51,3.21-.35,5.98,3.05,7.55.37.17.69.47.98.76,1.48,1.53,2.43,3.4,1.62,5.43-.76,1.9-2.71,1.98-4.51,1.72-1.52-.22-2,.37-1.7,1.82.55,2.69.94,5.42,1.65,8.06,1.31,4.9,3.79,9.05,8.45,11.52.67.35,1.43.53,2.12.78Z"/><path d="m198.24,352.73c-1.18-1.39-2.15-2.52-3.19-3.74.13-.03.59-.31.76-.18,1.98,1.46,4.17.84,6.27.6,1.85-.21,3.63-.58,4.85,1.27,3.45-3.06,4.26-9.09,1.81-13.49-.86.39-1.74.78-2.54,1.14.58.8,1.71,1.9,1.53,2.2-.93,1.53-.73,4.2-3.21,4.28-1.64.06-3.41-.37-4.93-1.03-1.3-.56-2.39-1.01-3.87-.25.32.71.61,1.34.87,1.94-2.23,1.89-2.45,1.86-5.13-.79-.51.58-1.02,1.17-1.63,1.86.75.71,1.25,1.19,1.75,1.66-.04.11-.09.22-.13.33-1.28-.26-2.58-.47-3.85-.78-4.76-1.16-9.47-2.56-14.29-3.43-2.38-.43-4.94.03-7.41.21-2.24.16-4.46.6-6.69.7-.92.04-1.95-.33-2.78-.79-1.9-1.03-3.72-2.2-5.55-3.36-3.84-2.44-7.98-4.09-12.45-4.98-.99-.2-1.93-.63-2.89-.96.05-.23.09-.46.14-.69,1.62.1,3.23.28,4.85.28,2.98,0,5.97-.06,8.94-.22.78-.04,1.55-.52,2.31-.85,1.76-.76,1.72-1.93.83-3.4-1.98-3.26-4.49-5.98-7.71-8.02-.73-.46-1.42-1-2-1.68,3,.55,5.46,2.13,7.13,4.52,3.31,4.73,8.01,7.68,12.74,10.64,3.01,1.89,6.11,3.51,8.63,6.24,2.26,2.44,5.76,2.77,8.91,1.87,8.72-2.49,17.58-4.68,25.98-8.01,9.3-3.69,17.5-9.57,25.53-15.53,4.33-3.21,8.58-6.53,11.18-11.48.24-.46,1.36-.82,1.93-.67,2.72.68,5.49,1.32,8.04,2.44,1.81.79.76,2.28-.3,3.44v-2.27c-.21-.22-.3-.41-.43-.46-6.02-2.14-5.81-1.92-10.38,2.52-3.74,3.63-7.99,6.77-12.19,9.88-3.13,2.31-6.57,4.22-9.85,6.33-.59.38-1.09.89-1.9,1.56,5.16,2.12,9.59,5.09,15.15,4.43,1.84-.22,3.65-.28,4.52,2.04.15.41,1.56.63,2.29.48,1.06-.21,2.04-.84,3.05-1.29.12.18.23.35.35.53-.89,1.06-1.63,2.31-2.7,3.13-3.02,2.34-6.1,4.63-9.3,6.73-3.47,2.27-7.11,4.29-10.66,6.43-3.42,2.07-6.93,1.72-10.49.6-.01-.2-.03-.39-.04-.59,1.09,0,2.19,0,3.28,0,2.66,0,5.01-.76,7.22-2.34,3.1-2.22,6.39-4.16,9.6-6.23,1.05-.68,2.18-1.26,3.11-2.06,2.16-1.85,1.5-5.16-1.24-5.87-2.32-.6-4.73-.82-7.1-1.21-2.07,2.57-2.22,2.57-4.11-.12-1.34-1.91-3.2-2.44-5.74-1.64-2.34.74-3.12,1.6-2.99,4.22.17,3.28-.13,6.44-1.05,9.59-.85,2.93-3.03,4.88-6.08,4.82-2.4-.05-4.79-.35-6.74-.51Z"/><path d="m273.36,187.9c.52.84,1.35,1.64,1.49,2.54.64,4.19,2.23,7.64,6.34,9.47.11.05.15.28.32.63-.69.18-1.33.35-2.38.62,1.74,4.91.87,10.39,4.12,15.01-.51.7-1.19,1.43-1.62,2.29-.56,1.13-.21,1.96,1.17,2.07.66.05,1.33.05,2,.05,4.24-.02,4.17-.03,3.63-4.13-.17-1.25-.01-2.72.51-3.86,1.2-2.61,1.09-5.17.34-7.79-.82-2.88-1.71-5.74-2.56-8.61-.23-.77-.39-1.55-.36-2.4,2.32,3.39,3.58,7.19,4.62,11.08.82,3.08,1.55,6.13-.37,9.14-.62.96-.66,1.96.74,2.68.46.24.68,1.46.59,2.18-.31,2.49.71,3.96,2.85,5.24,3.12,1.86,6.47,3.79,6.99,7.95.82,6.56-.38,12.6-4.96,17.66-.39.43-1.03.71-1.25,1.2-1.39,3.15-3.97,3.35-6.87,3.01-1.65-.2-3.32-.35-4.98-.3-1.51.05-1.88-.78-1.96-1.98-.1-1.44.86-1.67,1.96-1.54,2.72.32,5.43.71,8.15,1.04.51.06,1.04-.04,1.57-.06.02-.19.04-.37.07-.56-1.78-.4-3.58-.74-5.34-1.22-2.32-.63-4.64-1.29-6.88-2.13-.65-.25-1.18-1.11-1.53-1.8-1.75-3.49-3.38-7.04-5.13-10.54-1.53-3.07-.99-6.32,1.67-9.15.68-.73,1.62-1.28,2.1-2.12.66-1.15,1.47-2.52,1.39-3.75-.63-9.84-2.04-19.54-6.3-28.6-.35-.75-.53-1.58-.74-2.38-.05-.2.09-.45.14-.68.16-.08.31-.17.47-.25Zm8.58,56.1c-.04.14-.08.28-.12.41.48.29.94.78,1.45.85,3.78.53,7.57,1.14,11.37,1.36.96.06,2.44-.95,2.92-1.86,1.22-2.33,2.22-4.83,2.94-7.37,1.33-4.73-.52-9.08-4.76-11.52-2.02-1.16-4.12-2.18-6.24-3.13-.56-.25-1.35-.02-2.03-.01.1.61.19,1.21.29,1.82.35,2.17,1.05,4.35.97,6.51-.11,3.33-.12,6.79-2.88,9.54.22.14.44.27.67.41.87-.25,1.73-.5,2.6-.76.19.23.38.47.57.7-.82.48-1.64.97-2.67,1.58,6.21,1.13,7.49.5,9.38-4.25.56,4.61-1.34,6.85-5.85,6.62-2.88-.15-5.75-.59-8.62-.9Zm5.32-11.85l.73-.36c.59-3.2-.61-6.1-2.2-8.74-.8-1.32-2.5-1.12-3.75-.09-1.47,1.21-.41,2.09.42,3.08,1.17,1.39,2.21,2.88,3.33,4.32.47.61.99,1.2,1.48,1.79Zm-6.97-5.9c-.18.14-.36.29-.54.43,1.48,3.5,3.04,5.28,5.46,5.72-1.81-2.27-3.36-4.21-4.91-6.15Z"/><path d="m65.22,214.67c-1.02,6.9-1.83,13.83-3.17,20.67-.54,2.78-2,5.47-3.46,7.95-2.07,3.51-5.53,3.55-7.38-.05-1.49-2.9-2.56-6.15-3.08-9.36-.59-3.67-.43-7.46-.49-11.21-.12-8.36,2.5-16.06,5.92-23.51,1.63-3.56,5.86-3.79,7.98-.43,1.17,1.85,2.03,4.04,2.43,6.19.58,3.17.62,6.44.89,9.67.12.03.24.06.36.09Zm-11.36,29.32c.21-.12.41-.23.62-.35.05-.31.13-.63.14-.94.2-4.82.25-9.66.64-14.46.35-4.32,1.29-8.49,3.5-12.39,2.41-4.25,2.2-9,1.31-13.64-.18-.95-1.19-2.15-2.08-2.43-.63-.21-2.02.72-2.5,1.49-1.3,2.11-2.56,4.32-3.38,6.65-2.86,8.06-3.56,16.45-2.68,24.89.33,3.14,1.78,6.19,2.85,9.23.26.75,1.04,1.31,1.57,1.96Z"/><path d="m101.21,319.9c3.05.4,6.12.71,9.15,1.23,1.95.34,3.14,1.29,3.11,3.71-.05,3.66,1.22,7,3.63,9.88.95,1.14,1.75,2.44,2.45,3.75.35.65.68,1.74.37,2.19-.36.53-1.48.89-2.18.77-2.62-.43-5.19-1.17-7.8-1.65-6.36-1.15-9.54-6.02-12.5-10.92-1.05-1.73-1.09-4.12-1.4-6.24-.27-1.89.73-2.77,2.65-2.62.83.07,1.66.01,2.5.01,0-.04.01-.07.02-.11Z"/><path d="m335.82,216.31c1.75-1.1,3.21-2.21,4.83-3,1.7-.82,3.57-1.29,5.32-2.01.88-.36,1.8-.82,2.47-1.47,1.69-1.67,2.9-3.52.89-5.82-.15-.17-.02-.58-.02-1.13,7.33,5.26,8.29,13.05,9.4,20.54-1.12,1.03-2.15,1.93-3.13,2.88-1.93,1.88-3.77,3.98-7.07,1.48-.28,2.86-.55,5.2-.72,7.55-.09,1.24-.05,2.49-.02,3.73.07,2.7,1.78,4.87,3.87,5.29-.61,1.63-1.89,3.39-1.68,4.95.23,1.68,1.86,3.17,2.92,4.8-.85.5-2.06.8-2.46,1.54-.46.86-.31,2.11-.26,3.18.18,3.9.34,7.8.67,11.69.36,4.23,1.07,8.46-.78,12.54-.3.66-.61,1.32-1.39,1.88.15-1,.2-2.02.48-2.98,1.18-3.99.19-7.94-.11-11.9-.38-4.89-.49-9.85-1.43-14.64-.59-3,0-5.57.86-8.22.67-2.09.45-3.68-1.32-5.1-.49-.39-.84-1.27-.83-1.92.14-6.96.4-13.93-1.24-20.79-.06-.24-.07-.5-.14-.74-.35-1.39.36-3.47-2.12-3.52-2.2-.05-4.14,1.62-4.57,3.77-.08.4-.18.8-.29,1.19-.01.05-.13.08-.43.25-.28-.67-.56-1.3-.83-1.95-.29-.68-.57-1.37-.87-2.1Zm12.17-1.4c-2.33,1.97-1.76,4.43-1.86,6.7-.1,2.18,1.19,3.48,2.95,4.53,1.78,1.06,3.36.62,4.89-.41,1.95-1.32,2.97-3.14,2.54-5.54-.51-2.84-.98-5.7-1.71-8.49-.34-1.31-1.25-2.48-2.13-4.13-1.03,1.37-1.65,2.12-2.19,2.93-1.31,1.94-.94,2.87,1.34,3.64.67.23,1.31.57,2.3,1.01-2.53,1.56-4.31.04-6.12-.24Z"/><path d="m349.82,349.78c-1.87-1.14-3.48-1.86-4.77-2.96-2.95-2.52-2.86-7.67.02-10.28,2.06-1.87,4.87-2.05,7.3-.09,1.28,1.03,2.03.68,2.99-.15.06-.05.14-.1.19-.16.92-1.34,1.84-2.68,2.76-4.02-1.25-.7-2.5-1.41-3.76-2.1-.33-.18-.69-.29-1.04-.43l.15-.5c1.23.33,2.46.67,3.69,1,1.76.47,2.55-.1,2.78-2.02.44-3.74-.19-7.09-2.61-10.07-.9-1.11-1.55-2.41-2.17-3.71,7.85,6.09,8.94,15.69,2.66,23.07-.89,1.04-2.34,1.72-3.66,2.24-2.26.88-3.06,3.03-1.52,4.66,1.19,1.26,2.83,1.18,3.8-.25.37-.53.61-1.15.95-1.8,1.07,2.79.04,4.66-2.73,4.78-1.57.07-2.11.82-2.57,2.16-1.97,5.82-5.54,10.57-10.13,14.58-.91.79-1.84,1.21-2.63-.4,4.75-3.59,7.78-8.43,10.3-13.54Zm-4.41-8.72c.25,2.26.99,4.07,2.78,5.26.53.35,1.46.45,2.06.24.36-.12.57-1.06.6-1.65.1-1.8.24-3.63.05-5.41-.09-.83-.71-1.97-1.4-2.26-.69-.29-2.07,0-2.58.56-.77.85-1.04,2.15-1.53,3.26Z"/><path d="m404.16,361c1.9-2.69,3.84-5.34,5.66-8.07.68-1.01,1.08-2.21,1.6-3.33-.17-.14-.33-.27-.5-.41.31-.02.67-.16.93-.05,2,.87,3.45.47,4.54-1.56,1.32-2.46,1.61-5.32.03-6.74-1.36-1.23-.97-2.14-.32-3.44,1.62-3.28,3.49-6.51,4.51-9.98.68-2.32.36-5.07-.07-7.53-.25-1.42-.51-2.64-.06-4.06,1.48-4.61,2.75-9.23,1.94-14.2-.18-1.14.71-2.46,1.16-3.84.68,2.93,1.73,5.73,1.86,8.57.09,1.94-1.18,3.92-1.71,5.91-.46,1.76-1.02,3.56-1,5.34.01,1.15.77,3.04,1.57,3.27,1.18.34,2.73-.44,4.07-.89.48-.16.84-.71,1.35-1.18,1.08,1.47,1.19,2.55-.62,3.15-1.26.42-2.61.58-3.81,1.09-.71.3-1.52.96-1.78,1.65-1.45,3.88-2.48,7.94-4.2,11.7-1.19,2.61-.84,5.2-1.12,7.8-.38,3.54-1.94,6.42-4.52,8.86-1.3,1.23-2.24,2.85-3.55,4.06-1.68,1.55-3.58,2.86-5.38,4.27-.19-.14-.39-.27-.58-.41Z"/><path d="m421.87,366.46c-2.04-.58-2.58-1.78-2.71-4.01-.19-3.39.99-5.17,4.12-5.99.35-.09.63-.46,1.14-.84-.79-.55-1.41-.99-2.15-1.51,4.48-.65,7.6,2.28,11.27,3.7-.55,0-1.11-.07-1.64.01-.89.13-2.5.28-2.53.56-.14,1.26.01,2.63.42,3.84.1.3,1.62.4,2.36.16,2.01-.65,3.79-2.13,6.18-1.33.25.08.95-1.18,1.61-2.04.99.17,1.39,1.04.62,2.2-.67,1.01-1.58,1.89-2.49,2.72-3.89,3.53-8.59,4.82-13.74,4.91-1.84.03-2.05-1.37-2.6-2.54,1.43.96,2.73.41,3.84-.53.48-.41.95-1.32.81-1.83-.15-.55-.97-1.13-1.6-1.29-2.2-.55-3.63,1.4-2.88,3.82Z"/><path d="m268.08,337.14c0-1.32.03-2.65,0-3.97-.12-3.86-2.25-6.68-4.94-9.13-.42-.38-1.44-.13-2.18-.13-.13,0-.28.17-.39.29-2.7,2.92-5.27,5.98-8.16,8.7-1.37,1.29-3.34,1.96-5.09,2.82-.21.1-.83-.25-.98-.54-.14-.28-.04-.87.19-1.1.63-.66,1.36-1.22,2.08-1.78,5.63-4.37,10.6-9.32,14.13-15.6.28-.49.67-.96,1.1-1.33,2.91-2.49,3.54-5.05,2.15-8.47-.23-.57-.11-1.29-.15-1.94.17-.06.34-.11.51-.17,2.3,1.96,4.67,3.84,6.87,5.9,1.47,1.38,1.21,1.84-.51,2.97-2.83,1.87-5.64,3.79-8.3,5.91-1.99,1.59-1.85,2.22.13,3.86,3.7,3.06,5.42,9.07,3.56,13.7Z"/><path d="m470.58,376.48c-.48-1.17-.97-2.34-1.22-2.96.98-1.26,1.8-2.11,2.36-3.11,1.46-2.59,2.76-5.28,4.2-7.88,1.53-2.76,2.29-5.69,2.2-8.84-.19-6.41-.39-12.81-.58-19.22-.01-.35.09-.71.33-1.09,1.71,3.1-.28,7.95,4.79,9.21q-1.03,1.22-3.14.41c0,3.25-.02,6.45.01,9.66.01,1.28.67,2.03,2.05,1.94,1.39-.1,1.71-.95,1.73-2.22.04-2.34.24-4.68.37-7.02.17.01.34.02.5.03,0,2.59-.1,5.19.02,7.77.25,5.62-.66,11.1-1.75,16.57-.09.48-.25.99-.53,1.38-2.12,2.88-4.26,5.75-6.44,8.58-.99,1.29-2.3,1.86-4.19,1.24.32-.44.52-.83.82-1.13,2.13-2.08,4.43-4.01,6.4-6.23,2.92-3.3,2.84-3.77.25-7.08.92.38,1.83.76,3.04,1.25,0-.89.12-1.41-.02-1.82-.6-1.73-.23-3.13.82-4.66.68-.99,1-2.51.83-3.7-.11-.76-1.35-1.73-2.21-1.88-.6-.11-1.89.88-2.07,1.58-1.4,5.55-4.15,10.47-6.79,15.45-.62,1.17-.85,2.54-1.27,3.82-.17-.02-.33-.04-.5-.06Z"/><path d="m364.87,311.34c-2.2-.46-2.59-1.73-2.39-3.25.4-2.96,1.07-5.9,1.32-8.87.24-2.89.15-5.81.12-8.71-.02-1.47-.55-2.63-2.48-2.4.54-2.91.98-5.67,1.58-8.39,1.46-6.59,1.03-13.25.62-19.88-.08-1.25-1.8-2.4-2.97-3.85.35-.44,1.08-1.35,2.1-2.61.53.78,1.22,1.39,1.41,2.14,1.85,7.24,2.21,14.56,1.39,22.01-.33,3.02.23,6.13.16,9.19-.13,6.56-.4,13.12-.63,19.67-.05,1.55-.16,3.11-.25,4.95Z"/><path d="m120.04,244.08c-1.52-.35-3.13-.49-4.55-1.09-2.84-1.21-3.23-4.1-1-6.23,2.69-2.58,8.39-3.36,11.71-1.61,2.27,1.2,2.72,3.66,1.02,5.91-1.79,2.38-4.41,2.74-7.19,3.03Z"/><path d="m233.33,245.29c.49-.37.93-.93,1.49-1.08,8.56-2.29,17.16-3.24,25.79-.37.32.1.72.16.91.38.66.76,1.25,1.59,1.87,2.39-.82.16-1.64.48-2.45.45-9.01-.36-17.96.02-26.87,1.55-.87.15-1.85-.36-2.79-.57.81-.34,1.6-.88,2.44-.98,6.9-.87,13.81-1.66,21.13-2.53-7.41-1-14.34-.05-21.24,1.31l-.28-.55Z"/><path d="m405.15,269.49c-2.18.01-4.09.6-4.38,2.88-.17,1.4.07,3.59.98,4.24,1.96,1.4,3.34-.84,5.16-2.2.11,2.56-1.46,3.23-3.01,3.46-1.6.23-2.29.59-2.28,2.42.02,5.56-.23,11.11-.32,16.67-.06,3.47-.01,6.94-.01,10.59-.47-.05-1-.1-1.18-.12-.24-5.13-.53-10.06-.66-15-.04-1.54.43-3.08.57-4.63.23-2.46.5-4.93.48-7.39,0-.73-.89-1.48-1.41-2.18-.81-1.09-1.73-2.11-2.49-3.24-1-1.48.38-2.36.91-3.52.45-1,.51-2.27.43-3.4-.45-6.6-.16-13.31-2.74-19.64.27-.08.54-.15.81-.23.64,2.02,1.57,3.99,1.85,6.06.66,4.85,1.03,9.74,1.49,14.62.17,1.86,1.16,1.47,2.24.87,1.13-.62,2.21-1.5,3.56-.26Z"/><path d="m95.89,246.86c-2.52.08-4.59-1.25-6.05-3.62-1.11-1.8-.87-3.23.92-4.22,3.55-1.96,7.37-2.1,11.1-.8,2.63.91,3.07,3.54,1.23,5.67-1.8,2.08-4.14,2.98-7.2,2.97Z"/><path d="m383.5,268.96c.59,2.37,1.54,4.71,1.69,7.1.48,7.38,1.01,14.79.81,22.17-.14,5.08-1.37,10.16-2.33,15.19-.55,2.9-1,5.71-.04,8.59.25.77.28,1.63.28,2.45,0,1.26-.48,2.11-1.98,1.84-1.42-.25-1.59-1.02-1.31-2.35,1.71-8.22,3.18-16.48,3.09-24.92-.02-1.75-.25-3.49-.22-5.23.02-1.03.35-2.06.53-3.08.18-1.05.59-2.12.49-3.14-.54-5.21-1.24-10.4-1.83-15.6-.11-.96-.02-1.95-.02-2.93.28-.04.55-.07.83-.11Z"/><path class="cls-3" d="m129.73,222.26c-5.92-.34-9.03-3.41-8.98-9.19.04-5.2,3.42-11.93,9.4-14.08,5.73-2.06,9.63-.34,11.37,5.46,1.78,5.94-2.05,14.34-7.74,16.76-1.27.54-2.69.71-4.04,1.04Zm-7.58-9.67c-.56,7.65,5.68,9.09,10.05,7.34,6.25-2.51,8.99-8.13,7.77-14.77-.83-4.52-3.82-6.45-8.32-5.37-5.29,1.27-9.43,6.84-9.5,12.8Z"/><path d="m228,367.48c-3.18,1.62-6.38,1.47-9.46.88-1.62-.31-3.03-1.61-4.59-2.35-3.59-1.69-7.06-2.88-11.19-.96-2.38,1.1-5.41.72-8.09,1.28-3.9.8-7.75,1.88-11.64,2.75-.88.2-1.83.03-2.75.03-.04-.23-.09-.45-.13-.68,2.02-.77,3.99-1.79,6.09-2.26,4.04-.92,8.16-1.5,12.23-2.27,2.53-.48,5.03-1.08,7.55-1.61,2.11-.44,4.05-.14,6.05.81,3.08,1.47,6.22,2.87,9.47,3.86,1.96.6,4.17.37,6.47.53Z"/><path class="cls-3" d="m91.7,217.87c-.96,4.52-5.95,9.09-10.41,9.54-2.71.27-5.62-1.63-6.72-4.6-1.25-3.37-1.72-6.87.23-10.12,1.53-2.54,3.05-5.29,5.22-7.2,4.97-4.36,8.12-3.54,11.79,1.05,2.43,3.03,2.23,8.39-.18,11.39m.04-1.49c.79-2.28.36-4.86-.11-7.15-.96-4.67-6.58-6.54-10.27-3.48-4.85,4.01-7.31,9.15-5.97,15.63.49,2.39,2,3.76,4.47,3.98,4.13.38,7.21-1.41,9.53-4.74.41-.85,2.05-3.34,2.36-4.24Z"/><path d="m383.25,264.2c-.31-1.41-.69-2.8-.91-4.22-.55-3.58-.91-7.21-1.59-10.76-.39-2.01-1.31-3.9-1.93-5.87-.19-.61-.44-1.4-.22-1.91,1.73-4.06.25-7.86-.84-11.68-.74-2.58-1.67-5.11-2.52-7.66.21-.14.43-.27.64-.41.99,1.13,2,2.25,2.97,3.4,1.07,1.25,1.52,2.48.97,4.3-.36,1.19.39,2.73.71,4.1.77,3.29,1.5,6.38.63,9.98-.59,2.43.65,5.55,1.72,8.09,1.77,4.2,1.5,8.33,1.03,12.55-.22.03-.44.07-.66.1Z"/><path d="m224.69,146.01c2.7,2.24,5.68,4.21,8.07,6.75,9.12,9.73,17.69,19.9,23.36,32.14,1.22,2.64,2.38,5.31,3.45,8.02.26.65.04,1.49-.28,2.26-8.17-18.87-18.79-35.78-35.25-48.51.22-.22.43-.44.65-.66Z"/><path d="m399.99,339.65c-.37,1.86-.73,3.71-1.08,5.43-.75.66-1.81,1.27-2.4,2.18-2.65,4.13-4.82,8.62-7.84,12.44-3.06,3.88-6.9,7.14-10.44,10.63-.36.36-.97.47-1.47.7-.15-.14-.3-.29-.45-.43.88-1.22,1.52-2.77,2.68-3.6,6.81-4.91,10.29-12.31,14.63-19.08,1.85-2.89,3.86-5.68,5.8-8.51.19.08.37.16.56.24Z"/><path d="m253.75,251.99c2.75,0,5.5-.06,8.24.04.61.02,1.21.61,1.81.93-.59.43-1.13,1.12-1.78,1.25-1.38.27-2.81.24-4.22.36-6.54.55-13.09,1.12-19.63,1.68-.58.05-1.2.24-1.72.1-.48-.13-1.13-.57-1.21-.96-.08-.4.36-1.19.75-1.34,1.15-.46,2.37-.83,3.6-.97,4.71-.52,9.43-.94,14.15-1.4,0,.11.02.21.02.32Z"/><path d="m261,235.95c-5.11-.29-10.24-.95-15.33-.77-4.61.16-9.19,1.27-13.79,1.9-.72.1-1.48-.1-2.23-.16.51-.65.89-1.67,1.54-1.88,2.36-.77,4.8-1.66,7.24-1.78,5.64-.29,11.3-.2,16.96-.16,1.22,0,2.51.3,3.64.76.93.38,1.67,1.22,2.5,1.86-.18.08-.36.16-.54.24Z"/><path d="m246.48,198.84c1.05,1.64,2.03,1.59,3.4,1.01,2.77-1.18,5.71-1.19,7.9,1.07,2.65,2.74,4.15,6.2,2.9,10.03-.89,2.74-3.65,3.08-6.17,3.43-2.39.34-4.21-.73-5.13-2.72-1.02-2.22-1.63-4.67-2.2-7.06-.4-1.67-.44-3.43-.71-5.76Zm13.12,8.5c-.44-1.41-.7-2.9-1.34-4.21-1.5-3.02-5.03-4.13-7.81-2.46-.66.4-1.42,1.41-1.36,2.07.21,2.29.49,4.64,1.24,6.8.94,2.68,2.84,3.42,5.57,2.77,2.68-.63,3.52-1.83,3.7-4.98Z"/><path d="m378.96,337.69c-.27,1.33-.77,2.67-.74,4,.03,1.35.57,2.69.91,4.16-2.08-.14-2.34,1.57-2.79,3.02-1.6,5.11-3.54,10.08-6.96,14.26-2.02,2.47-4.44,4.63-6.67,6.93l-.83-.45c.18-.6.17-1.44.57-1.75,7.67-5.88,10.41-14.62,13.44-23.16.84-2.35,1.29-4.85,1.91-7.28l1.15.28Z"/><path d="m204.62,378.05c2.13-.16,4.27-.3,6.4-.48,8.2-.69,16.03-2.95,23.67-5.86,2.47-.94,4.45-.17,6.77.85-.41.27-.62.52-.79.5-3.9-.48-7.32,1.3-10.91,2.26-4.74,1.26-9.44,2.81-14.26,3.6-3.52.57-7.21.11-10.83.11-.02-.33-.04-.65-.05-.98Z"/><path d="m428.61,352.4c8.67-11.76,9.98-25.31,9.46-39.31.36.03.72.06,1.08.09.1,1.89.44,3.8.27,5.67-.6,6.7-1.2,13.4-2.13,20.05-.7,4.99-3.55,9.08-6.6,12.97-.33.41-.89.64-1.35.95-.24-.14-.49-.28-.73-.41Z"/><path d="m442.8,320.39c2.75-.1,3.53-.74,4.1-3.56.36-1.79.56-3.6.87-5.4.08-.44.3-.85.67-1.25.82,1.87.94,3.73.24,5.64-.08.23-.27.42-.38.64-2.08,4.32-1.92,4.81,2.23,7.01,3.51,1.86,4.43,3.8,3.91,7.9-.27,2.14-.37,4.29-.57,6.44-.01.11-.23.21-.65.56-.13-.97-.29-1.72-.33-2.49-.03-.49.08-.99.18-1.48.91-4.34-.62-7.3-4.7-9.25-2.17-1.04-4.01-2.75-6-4.16.14-.2.28-.39.42-.59Z"/><path d="m335.98,189.08c.55.52,1.24.96,1.62,1.58,2.23,3.59,4.37,7.23,6.57,10.83.68,1.12,1.29,2.37,2.24,3.23,1.54,1.39.5,2.5-.27,3.41-1.1,1.3-5.5.87-6.55-.53-.23-.3-.21-.94-.06-1.34.16-.44.58-.79.9-1.18,2.66-3.2,2.71-3.23.51-6.82-1.38-2.26-2.95-4.41-4.43-6.61-.43-.64-.84-1.3-1.25-1.94.24-.21.49-.42.73-.63Z"/><path d="m267.5,302.22c1.99-3.03,3.57-6.45,6.06-8.99,3.04-3.09,3.8-6.45,3.35-10.43-.05-.41-.04-.82-.05-1.24,0-.07.07-.14.23-.43.33,0,1.05-.18,1.19.03,2.58,3.87,7.94,5.21,9.55,10.38-2.67-2.37-5.1-4.52-7.76-6.88-1.49,7.71-7.74,11.55-11.24,17.22-.18.3-.59.46-.89.68-.15-.12-.3-.24-.44-.36Z"/><path d="m175.88,326.28c.84-.43,1.64-1.05,2.54-1.26,4.04-.94,8.08-1.86,12.16-2.6,2.26-.41,4.41.34,5.71,2.26.66.98,1.07,2.58.73,3.62-.26.79-1.88,1.14-3.12,1.42.7-1.26,2.3-2.1.91-3.7-1.02-1.18-4.87-2.21-5.95-1.32-2.19,1.81-4.69,1.83-7.29,1.83-1.82,0-3.64.3-5.46.46-.07-.24-.15-.48-.22-.72Z"/><path d="m263.81,363.67c-1.56-.53-3.1-1.44-4.69-1.53-4.32-.23-8.59.33-12.76,1.58-.69.21-1.39.36-2.29.14.42-.26.8-.66,1.26-.76,4.12-.89,8.21-2.08,12.38-2.41,2-.16,4.3,1.08,6.16,2.19,1.92,1.14,1.54,2.89-.66,3.45-2.23.57-4.55.95-6.84,1.06-1.22.06-2.47-.64-3.8-1.02,1.44-2.25,3.23-2.91,4.6-1.62,1.48,1.4,2.71,1.21,4.21.25.65-.41,1.46-.56,2.19-.84.08-.17.16-.33.23-.5Z"/><path d="m81.86,327.76c1.26-.93,2.05-1.39,2.69-2,2.1-2,5.3-2.03,7.24.06,1.04,1.12,1.12,2.53.19,3.64-.9,1.06-1.63,2.94-3.75,1.69-1.97-1.16-4.04-2.16-6.36-3.38Z"/><path d="m443.79,360.68c3.12-6.37,5.95-12.15,8.78-17.92.17.06.34.13.51.19-1.83,4.36-3.67,8.72-5.5,13.08.28.21.56.42.85.63,3.64-2.87,7.28-5.73,10.92-8.6.13.12.25.24.38.35-.58.61-1.1,1.29-1.74,1.83-2.59,2.2-5.2,4.36-7.82,6.53-1.08.89-2.12,1.84-3.29,2.58-.89.56-1.95.85-3.09,1.32Z"/><path d="m222.67,162.78c-6.78-6.84-14.09-12.37-23.71-15.16,6.8-1.12,21.64,8.51,23.71,15.16Z"/><path d="m319.89,210.76c-.2-.61-.72-1.36-.53-1.82,1.62-3.97.37-7.71-.88-11.4-.61-1.79-1.7-3.41-2.55-5.12-1.63-3.29-3.24-6.6-4.86-9.9.23-.13.47-.26.7-.39.49.72,1.09,1.39,1.45,2.17,2.57,5.49,5.1,11,7.62,16.51,1.49,3.26.59,6.48-.1,9.69-.28.09-.56.17-.85.26Z"/><path d="m265.07,276.17c.58-4.82,1.46-9.63,1.65-14.46.19-4.77-.32-9.57-.54-14.71,2.51,4.35,2.83,19.18-.51,29.21-.2-.01-.4-.02-.6-.04Z"/><path d="m275.72,308.52c4.96-2.13,14.55,4.46,17.31,8.82-2.59-1.95-5.15-3.94-7.78-5.85-2.74-1.99-6.2-2.33-9.52-2.97Z"/><path d="m360.59,227.25c2.07,1.52,3.37,4.49,2.51,6.62-.99,2.47-.83,4.82-.28,7.31.52,2.31,1.05,4.76-1.25,6.58-.33-6.87-.66-13.7-.99-20.51Z"/><path d="m242.52,191.16c-3.23-5.52-6.49-11.03-9.7-16.57-1.43-2.47-2.96-4.83-5.61-6.2-.66-.34-1.29-.76-1.69-1.4,2.89-.03,4.44,1.52,5.77,3.7,2.9,4.76,6.09,9.33,9,14.08,1.18,1.92,1.95,4.1,2.91,6.16-.23.08-.46.15-.69.23Z"/><path d="m403.06,365.54c2.09,1.45,4.02,2.8,5.96,4.14-.93,1.97-4.13,3.06-6.26,2.12-1.03-.46-.9-3.46.3-6.26Z"/><path d="m80.07,326.03c-2.17-1.85-5.31-3.08-4.72-6.97.11-.72.31-1.48.67-2.1.56-.97,1.42-.96,1.93,0,.53,1.01.89,2.14,1.13,3.26.41,1.89.66,3.81.99,5.81Z"/><path d="m397.18,374.64c-2.63.37-4.93.25-6.78,1.1-1.72.79-2.95,2.61-4.4,3.98-.15-.1-.3-.2-.46-.3.56-1.86.99-3.79,1.76-5.56.24-.55,1.46-1.06,2.13-.95,2.43.39,4.81,1.05,7.76,1.73Z"/><path d="m260.01,292.1c-.34.44-.59,1-1.02,1.29-3.96,2.56-6.27,6.5-8.69,10.34-.73,1.16-1.48,1.4-2.9.59,2.06-2.52,4.01-4.94,5.99-7.33.84-1.02,1.66-2.07,2.63-2.96,1.04-.96,2.25-1.75,3.38-2.61.21.23.41.46.62.68Z"/><path d="m399.3,325.08c1.39,1.53.94,2.3,0,3.14-2.42,2.16-5.31,3.21-8.42,3.71-2.19.35-4.41.53-6.88.36.64-.23,1.27-.62,1.92-.66,5.31-.33,10.11-1.72,13.39-6.55Z"/><path d="m411.22,280.6c2.46,2.87,4.78,14.04,3.06,17.16-1.01-5.68-2.03-11.36-3.06-17.16Z"/><path d="m408.43,322.55c.8,5.89-1.78,12.32-5.59,13.44,1.23-2.48,2.37-4.5,3.25-6.63.91-2.21,1.57-4.53,2.34-6.81Z"/><path d="m170.11,332.76c.08-.53.09-1.08.26-1.57.8-2.36-.2-4.54-2.55-5.71-.44-.22-.81-.76-1.03-1.23-.28-.59-.33-1.28-.57-1.89-.24-.6-.59-1.15-.94-1.79,2.39.31,4.97,3.3,6.33,7.21.79,2.29.55,3.46-1.5,4.98Z"/><path d="m262.29,348.22c-1.9,1.6-3.3,2.78-4.89,4.11-.58-2.22-1.12-4.28-1.76-6.75.7.19,1.61.2,1.72.5.76,2.09,2.47,2.26,4.93,2.15Z"/><path d="m491.34,379.91c1.19-4.71,2.37-9.42,3.56-14.14.2.05.4.11.6.16-.4,4.92-1.66,9.63-3.6,14.16-.19-.06-.38-.12-.56-.19Z"/><path d="m306.78,209.34c2.52,3.63.76,8.37,2.11,12.59-1.83-.79-1.88-2.33-1.91-3.9-.05-2.96-.14-5.93-.2-8.69Z"/><path d="m177.91,328.46c2.42-.66,3.78.44,5.29,1.22,1.42.73,3,1.16,4.98,1.9-3.95.1-7.1-.68-10.27-3.12Z"/><path d="m168.68,368.05c3.37.29,6.88-.08,9.75,2.72-3.3-.66-6.61-1.32-9.91-1.97.05-.25.1-.5.15-.75Z"/><path d="m463.26,345.17c-1.5-.36-2.94-.71-4.38-1.05-.09-.18-.17-.35-.26-.53,2.69-.39,3.21-2.06,2.69-4.34.26,0,.53,0,.79,0,.35,1.77.69,3.53,1.16,5.91Z"/><path d="m146.51,171.93c-2.72,1.33-5.52,2.01-8.52.79l8.44-1.49.07.7Z"/><path d="m257.04,155.11c3.19,2.68,6.39,5.36,9.58,8.05-.18.21-.37.42-.55.63-3.12-2.77-6.24-5.54-9.35-8.32.11-.12.21-.24.32-.36Z"/><path d="m83.58,177.92c3.27-.38,6.54-.77,9.82-1.15-3.11,1.74-6.38,2.27-9.82,1.15Z"/><path d="m165.93,351.35c1.04-1.26,1.68-2.2,2.51-2.93.29-.26,1.1-.16,1.52.07.24.13.39,1.04.2,1.25-.95,1.04-1.92,2.25-4.23,1.62Z"/><path d="m295.23,179.44c1.63,3.47,3.25,6.94,4.88,10.41-.22.1-.43.21-.65.31-1.62-3.47-3.24-6.94-4.86-10.42l.62-.3Z"/><path d="m257.54,225.48h5.9c-2.3,1.97-4.72,2.06-5.9,0Z"/><path d="m282.69,273.6c-1.35-2.43-2.46-4.44-3.84-6.91,2.73.92,2.99,1.44,3.84,6.91Z"/><path d="m357.6,305.53c-1.83.24-3.66.48-5.99.79.44-.63.64-1.31,1.04-1.44,1.8-.61,3.56-.47,5.23.2-.09.15-.18.3-.28.45Z"/><path d="m330.81,208.88c-.76-.21-1.75-.19-2.04-.63-1.04-1.62-.19-3.2.33-4.92.55,1.79,1.04,3.37,1.71,5.55Z"/><path d="m434.82,369.03c1.07-.99,1.94-1.82,2.84-2.61.16-.14.45-.13.7-.2-.77,3.79-.71,4.38-3.54,2.81Z"/><path d="m282.06,263.63c1.94-2.37,1.16-4.85.36-7.57,2.28,2.5,2.06,6.6-.36,7.57Z"/><path d="m418.49,318.54c-1.47.28-2.94.57-4.68.9.82-2.07,1.99-2.31,4.68-.9Z"/><path d="m202.62,375.2c1.18-.11,2.36-.23,3.55-.31,1.23-.09,2.45-.14,3.68-.2.02.18.04.36.06.54-2.4.25-4.79.5-7.19.75-.03-.26-.06-.52-.09-.77Z"/><path d="m243.54,134.47c2.84-1.08,5.57-2.11,8.31-3.15.15.11.3.23.45.34-.28.5-.44,1.23-.87,1.46-1.88.99-3.86,1.79-5.75,2.75-1.27.65-1.83.21-2.14-1.41Z"/><path d="m369.41,417.09c2.32-1.46,4.61-2.95,6.96-4.36.56-.33,1.3-.54,1.94-.51.58.03,1.4.32,1.63.76.18.34-.34,1.1-.64,1.62-.39.68-.87,1.3-1.29,1.96-.98,1.5.58,2.46.82,3.71.08.43.43.81.66,1.2-1.87,1.23-7.73-1.35-10.08-4.38Z"/><path d="m390.48,410.33c0-.26-.01-.86-.03-1.47,2.3,1.75,3.12,5.78,1.71,8.1-.46.75-.72,1.63-1.25,2.31-.92,1.18-2.15,1.06-2.38-.32-.35-2.16-.4-4.4-.25-6.59.04-.61,1.19-1.14,2.19-2.03Z"/><path d="m161.87,373.91c-.14,8.33-6.64,14.14-9.7,17.47-1.89,2.05-4.48,3.64-6.91,5.26-.86.57-4.28,1.42-6.26,5.93-.47,1.07.95-8.54,2.15-8.99,1.02-.38,2.09-.68,3.17-.88,2.3-.42,6.4-1.62,7.44-8.37.93-6.04-3.67-8.43-5-9.01-.98-.43,15.13-2.66,15.11-1.41Z"/><path d="m494.87,417.91c.16,3.78-6.48,18.23-9.89,21.4,3.2-6.92,6.62-14.33,9.89-21.4Z"/><path d="m326.52,280.52c.53,2.6-.67,4.04-2.93,3.33-1.61-.51-3.27-1.43-4.44-2.63-3.2-3.27-4.51-7.32-3.94-11.9.05-.43.4-.82.62-1.23.19,0,.37.01.56.02.09.91.27,1.81.26,2.72-.02,2.85.82,5.39,2.5,7.7,2.13,2.93,3.91,3.47,7.37,1.99Z"/><path class="cls-2" d="m111.67,305.5c4.39-.49,8.15-1.05,11.92-1.29,5.72-.36,11.46-.57,17.19-.69,2-.04,3.58-.53,4.7-2.23.64-.97,1.36-1.89,1.92-2.91,3.42-6.14,7.19-12.02,12.74-16.49,1.35-1.09,2.3-2.18,2.62-3.96.41-2.32.22-2.86-2.09-2.47-7.54,1.28-15.21,2.15-22.53,4.24-11.75,3.36-20.71,10.44-25.21,22.28-.36.95-.69,1.91-1.27,3.52Z"/><path class="cls-2" d="m147.42,304.28c.12.26.24.52.35.79,12.52.39,24.34-2.52,35.31-8.62,6.06-3.37,10.81-8.36,15.59-13.97-10.98-2.84-21.09-2.67-31.1,1-4.04,1.49-7.85,3.42-10.46,6.94-3.36,4.53-6.47,9.23-9.69,13.86Z"/><path class="cls-2" d="m145.59,260.22c-.03-.75-.04-1.5-.11-2.25-.22-2.39-.64-2.7-3-2.35-.91.14-1.81.27-2.72.37-3.89.45-7.78.86-11.67,1.34-1.2.15-2.67.51-1.82,2.13,2.38,4.5,5.01,8.88,8.96,12.21,2.26,1.9,4.07,1.63,6.15-.54,2.91-3.04,4.28-6.7,4.2-10.9Z"/><path class="cls-2" d="m184.3,255.13c0-1.25-.02-2.5,0-3.75.02-1.35-.57-2.04-1.96-1.9-4.97.51-9.94,1-14.9,1.57-1.65.19-2.14,1.11-1.04,2.36,3.49,3.99,7.14,7.85,10.79,11.7,1.06,1.11,2.09.73,3.26-.22,3.18-2.57,4.17-5.88,3.85-9.77Z"/><path class="cls-2" d="m125.15,268.93c.05,0,.1-.01.15-.02-.29-2.56-.47-5.13-.88-7.67-.48-2.96-.87-3.16-3.77-2.89-3.07.29-6.13.53-9.2.76-2.4.17-2.86.7-1.57,2.68,2.11,3.27,4.44,6.42,6.85,9.48,1.11,1.41,2.54,2.66,4.03,3.67,2.11,1.43,4.22.27,4.38-2.27.08-1.24.01-2.5.01-3.74Z"/><path class="cls-2" d="m147.05,255.25c2.03,2.77,3.78,5.27,5.67,7.66,1.49,1.88,3.08,3.7,4.79,5.4,1.44,1.43,2.47,1.26,3.72-.33.46-.58.84-1.24,1.13-1.92,1.7-4.06,1.35-8.31.98-12.53-.12-1.4-1.13-1.4-2.22-1.2-4.09.74-8.18,1.44-12.26,2.18-.46.08-.88.36-1.8.75Z"/><path class="cls-2" d="m92.16,260.17c.31,1.05.47,1.83.78,2.55,2.2,5.05,6.29,8.54,10.23,12.11,1.38,1.25,2.28.12,2.81-1.15,1.65-3.93,2.02-8.04,1.53-12.25-.17-1.47-.94-1.93-2.37-1.85-3.49.19-6.99.25-10.48.38-.72.03-1.44.12-2.51.2Z"/><path class="cls-2" d="m196.78,248c-2.73.23-5.46.52-8.19.67-1.66.09-1.85,1.04-1.3,2.17,1.98,4.05,4.32,7.9,7.98,10.67,2.23,1.68,4.01,1.09,4.71-1.59.64-2.47,1.11-5.03,1.28-7.58.31-4.64.19-4.65-4.48-4.34Z"/><path class="cls-2" d="m83.05,260.64c0,.05,0,.11,0,.16-1.67,0-3.33-.05-5,.01-2.01.07-2.67.85-1.79,2.69,1.43,2.98,2.94,5.99,4.87,8.65,1.94,2.69,4.37,2.44,6.35-.27,2.05-2.81,2.58-6.08,2.67-9.47.04-1.3-.67-1.78-1.86-1.78-1.75,0-3.5,0-5.25,0Z"/><path class="cls-2" d="m68.98,261.1s0-.05,0-.07c-1.08,0-2.16,0-3.24,0-2.7-.03-3.5.9-2.14,3.27,1.92,3.36,4.16,6.58,6.59,9.61,1.62,2.02,3.02,1.58,4.03-.81,1.41-3.33,1.38-6.83,1-10.31-.07-.63-1.23-1.46-2-1.61-1.36-.26-2.81-.07-4.23-.07Z"/><path class="cls-2" d="m62.59,269.05c-.14-1.49-.18-3.08-.45-4.62-.46-2.61-1.73-3.53-4.3-3.5-1.44.02-1.99.67-1.7,2.02.37,1.7.67,3.43,1.25,5.06.72,2.02,1.64,3.97,2.59,5.89.2.4.98.83,1.35.73.39-.1.81-.8.88-1.29.21-1.39.26-2.8.38-4.3Z"/><path class="cls-2" d="m207.02,255.17c.35-.09.7-.19,1.05-.28-.21-2.42-.25-4.87-.76-7.22-.11-.52-1.86-.84-2.88-.93-.35-.03-1.22,1.05-1.12,1.42.72,2.61,2.11,4.89,3.72,7.01Z"/><path class="cls-2" d="m189,234.03c.23-.47.37-.62.36-.76-.06-.74-.12-1.49-.26-2.22-1.46-7.79-2.24-15.64-1.95-23.58.12-3.32.22-3.48,3.35-4.17,2.69-.59,3.61-1.49,3.64-4.2.07-5.36-.61-10.64-2.66-15.63-1.97-4.79-4.03-5.16-7.59-1.36-3.76,4.01-5.69,8.9-6.55,14.29-.51,3.21-.35,5.98,3.05,7.55.37.17.69.47.98.76,1.48,1.53,2.43,3.4,1.62,5.43-.76,1.9-2.71,1.98-4.51,1.72-1.52-.22-2,.37-1.7,1.82.55,2.69.94,5.42,1.65,8.06,1.31,4.9,3.79,9.05,8.45,11.52.67.35,1.43.53,2.12.78Z"/><path class="cls-2" d="m53.87,243.99c.21-.12.41-.23.62-.35.05-.31.13-.63.14-.94.2-4.82.25-9.66.64-14.46.35-4.32,1.29-8.49,3.5-12.39,2.41-4.25,2.2-9,1.31-13.64-.18-.95-1.19-2.15-2.08-2.43-.63-.21-2.02.72-2.5,1.49-1.3,2.11-2.56,4.32-3.38,6.65-2.86,8.06-3.56,16.45-2.68,24.89.33,3.14,1.78,6.19,2.85,9.23.26.75,1.04,1.31,1.57,1.96Z"/><path class="cls-2" d="m122.15,212.59c-.56,7.65,5.68,9.09,10.05,7.34,6.25-2.51,8.99-8.13,7.77-14.77-.83-4.52-3.82-6.45-8.32-5.37-5.29,1.27-9.43,6.84-9.5,12.8Z"/><path class="cls-2" d="m91.67,216.46c.79-2.28.36-4.86-.11-7.15-.96-4.67-6.58-6.54-10.27-3.48-4.85,4.01-7.31,9.15-5.97,15.63.49,2.39,2,3.76,4.47,3.98,4.13.38,7.21-1.41,9.53-4.74.41-.85,2.05-3.34,2.36-4.24Z"/><path class="cls-2" d="m264.31,134.33c3.52-2.52,6.96-5.09,10.5-7.5,5.28-3.59,11.18-5.87,17.21-7.87,9.58-3.17,18.76-7.31,27.96-11.38,1.36-.6,2.78-1.15,3.07-2.96.41-2.57.95-5.11,1.4-7.67.47-2.65.06-3.03-2.53-2.08-6.56,2.42-13.11,4.88-19.64,7.38-11.22,4.29-22.21,8.98-30.91,17.71-.5.5-1.56.45-2.36.65.06-.77-.15-1.73.23-2.29,1.85-2.72,4.18-4.93,7.41-6.01,3.3-1.11,6.89-1.99,6.33-6.83,2.58,1.62,2.59,1.64,5.87.25,5.59-2.37,11.11-4.93,16.78-7.12,5.28-2.04-12.84-5.06-21.6-.6-13.11,6.68-25.77,14.01-36.88,23.71-4.24,3.7-7.92,8.05-11.77,12.17-.47.5-.46,1.45-.67,2.18.86.18,1.81.67,2.57.46.74-.2,1.35-1.06,1.9-1.72,1.06-1.25,2.04-2.57,3.05-3.86.17.13.34.26.51.39-.88,1.74-1.76,3.47-2.82,5.56,1.9.37,3.61.52,5.2,1.04,5.22,1.69,10.4,3.52,15.6,5.28,1.63.55,3.23.59,4.12-1.18.88-1.75-.34-2.81-1.59-3.73-1.58-1.16-3.44-2.05-4.76-3.45-1.86-1.98-3.34-4.32-4.98-6.51-1.52-2.03-2.89-2.4-5.17-1.36-1.02.46-2.02.98-3.03,1.47-.11-.14-.22-.28-.33-.43.78-.94,1.47-1.96,2.35-2.79,1.22-1.14,2.59-1.31,4.1-.35,2.34,1.49,2.54,1.37,3.05-1.39.46-2.46.56-2.61,2.39-3.26-.25.64-.44,1.17-.67,1.68-1.6,3.57-.62,6.82,2.69,8.85.25.15.67.26.91.17,2.38-.94,2.87.78,2.97,2.36.12,1.87.98,3.06,2.35,4.16,2.48,1.98,2.58,2.79,1.04,5.47-.27.47-.4,1.02-.78,2.03,1.92.09,3.69.64,5.09.15,3.98-1.41,7.9-3.06,11.68-4.94,8.49-4.22,17.55-6.71,26.62-9.18,5.3-1.44,10.64-2.74,15.94-4.17,1.82-.49,3.59-1.18,4.45-3.01-1.75-1.33-3.39-2.52-4.94-3.81-.31-.26-.39-.89-.45-1.36-.32-2.55-.53-5.11-.9-7.65-.3-2.05-1.1-2.54-2.88-1.5-7.17,4.15-15.01,6.74-22.63,9.83-7.49,3.04-14.79,6.45-21.69,10.69-2.76,1.7-5.56,3.33-8.39,4.91-.89.49-1.98,1.04-2.98-.6Z"/><path class="cls-2" d="m311.53,163.7c1.1.78,1.79,1.44,2.6,1.82,7.11,3.3,14.01,6.95,20.38,11.56,2.06,1.49,4.32,2.91,7.11,2.63,3.72-.37,7.48-.57,11.16-1.18,4.58-.76,9.16-1.68,13.65-2.85,4.11-1.08,6.88-5.08,6.89-9.34-2.47-.52-4.89-.66-7.25.59-2.2,1.17-4.44,2.29-6.71,3.32-.5.23-1.5.19-1.76-.13-.34-.42-.2-1.26-.23-1.91-.01-.27.06-.54.11-.88-20.22,4.16-26.17,4.76-29.02,2.53,4.35-.55,8.28-1.4,12.23-1.46,8.96-.14,16.95-3.1,24.57-7.47,2.73-1.56,2.77-1.56.97-4.28-.37-.55-.54-1.29-1.01-1.7-.6-.52-1.46-1.19-2.11-1.1-2.63.35-5.25.88-7.84,1.5-6.06,1.45-12.04,3.31-18.15,4.4-7.94,1.41-15.99,2.23-23.98,3.32-.37.05-.72.29-1.6.65Z"/><path class="cls-2" d="m275.3,146.79c.01.28.03.56.04.83,1.52.8,3.01,1.69,4.58,2.39,5.88,2.65,11.94,2.39,18.13,1.28,5.56-1,11.19-1.66,16.78-2.5,3.78-.57,7.59-1.04,11.32-1.86,4.17-.92,4.58-1.66,4.47-5.84,0-.17-.06-.35,0-.5.28-.83.37-1.97.95-2.36.43-.28,1.61.31,2.29.75,1.35.88,2.64,1.77,4.38,1.27,2.14-.62,2.46-1.61,1.03-3.33-1.15-1.39-2.69-2.62-3.37-4.21-.69-1.61-1.58-1.99-3.03-1.78-3.54.52-7.15.8-10.59,1.69-10.96,2.81-21.91,5.72-32.77,8.88-4.84,1.41-9.47,3.51-14.2,5.29Z"/><path class="cls-2" d="m361.66,194.81c-.08.28-.16.55-.24.83,1.44,1.21,2.87,2.42,4.31,3.62,2.02,1.68,3.82,3.95,6.14,4.88,2.84,1.13,6.13,1.58,9.21,1.54,7.97-.11,15.95-.57,23.91-1.04,3.05-.18,6.08-.74,9.1-1.26,1.52-.26,1.94-1.38,2.11-2.92,1.93-9.55-13.6-9.5-17.54-9.19-12.64,1.21-24.83,2.38-37.01,3.55Z"/><path class="cls-2" d="m345.81,183.66c2.48,2.09,4.51,3.89,6.63,5.58,2.95,2.36,6.31,3.02,10.07,2.63,7.69-.81,15.41-1.26,23.09-2.13,4.28-.48,8.51-1.43,12.72-2.34,1.57-.34,2.95-1.29,3.13-3.15.42-4.3-3.05-7.58-7.33-7.08-6.27.74-12.56,1.31-18.83,2.09-9.31,1.16-18.61,2.45-27.91,3.7-.3.04-.58.24-1.57.69Z"/><path class="cls-2" d="m295.14,155.41c-.02.3-.04.59-.06.89.48.42.9.98,1.45,1.24,5.16,2.48,10.39,4.14,16.33,3,5.7-1.1,11.5-1.65,17.27-2.42,3.62-.49,7.27-.83,10.86-1.48.83-.15,2.07-1.25,2.1-1.96.08-2.02-.21-4.1-.67-6.09-.25-1.09-.49-1.84.56-2.59.3-.21.52-.95.37-1.25-.17-.33-.83-.65-1.21-.59-1.55.25-3.18.42-4.6,1.04-4.88,2.11-9.75,3.93-15.15,4.47-4.69.47-9.32,1.7-13.95,2.69-4.44.95-8.85,2.03-13.27,3.05Z"/><path class="cls-2" d="m390.63,220.19c0,.18,0,.36-.01.53,5.74-.9,11.49-1.74,17.22-2.72,3.55-.61,5.62-3.05,6.87-6.25,1.88-4.81,1.21-5.66-3.81-5.08-9.25,1.07-18.51,2-27.74,3.17-4.81.61-4.77.79-1.85,4.91,2.28,3.21,4.65,6.24,9.33,5.44Z"/><path class="cls-2" d="m413.88,253.65c2.2,2.79,4.08,5.25,6.06,7.63.29.35,1.09.49,1.61.42,3.62-.47,7.29-.77,10.8-1.67,1.68-.43,3.47-1.79,4.42-3.24.82-1.26.99-3.39.53-4.85-.21-.69-2.58-1.13-3.91-1.01-5.86.54-11.71,1.33-17.56,2.05-.39.05-.76.25-1.96.66Z"/><path class="cls-2" d="m400.53,235.06l-.33.54c1.26,1.7,2.43,3.47,3.8,5.08.67.78,1.62,1.66,2.56,1.82,6.24,1.04,12.36.19,18.34-1.2.2-1.14.39-2,.49-2.87.06-.51.18-1.28-.08-1.5-.33-.27-1.06-.2-1.56-.07-.51.14-.95.53-1.36.77-2.94-2.46-6.21-2.22-9.53-1.92-2.02.19-4.08.29-6.1.18-2.09-.12-4.16-.55-6.23-.84Z"/><path class="cls-2" d="m529.16,408.73c-2.5-.25-6.15-2.09-6.25.48.04-1.05,1.86,8.86,3.24,8.83.66-.04,4.33.98,5,.97,6.4-.19,7.69,1.72,7.5-2.45-.12-2.8.62-3.95-.35-6.14-1.8-4.05-2.45-.92-9.13-1.68Z"/><path class="cls-2" d="m528.56,399c-.95-.35-5.93-.81-5.83-.16.68,4.79,3.6,7.6,8.41,7.66,2.45-.59,6.11.76,7.66,0,.98-.48.35-3.07.45-3.51.26-1.13-4.05-3.53-10.69-4Z"/><path class="cls-2" d="m524.81,389.06c-.27,3.04.35,5.15,1.45,6.27s4.46,1.87,6.13.93c.05-.32-2.05-1.38-2.59-1.91-1.3-1.28-3.79-3.13-5-5.29Z"/><path class="cls-2" d="m524.55,437.39c-1.31-.7-2.59-1.48-3.95-2.09-.76-.34-1.64-.4-2.46-.59-.09.95-.31,1.92-.23,2.86.05.62.38,1.35.83,1.77,1.89,1.74,3.87,3.38,5.81,5.05,2.02-.08,4.09-4.14,4-4.84s-2.88-1.55-4-2.16Z"/><path class="cls-2" d="m531.14,422.5c-.82-.14-1.63-.33-2.45-.41-2.37-.24-5.64-3.15-5.97-.84-.76,5.36,2.14,8.58,7.47,10.47.31.11.64.19.95.28,1.84.45,4.38,2.99,5.13,1.21s2.16-8.47,1.88-9.41-5.75-1.06-7.01-1.29Z"/><path class="cls-2" d="m531.14,335.5c-2.85-2.86-6.35-3.82-10.27-3.52-3.81.3-7.63.59-11.43.97-1.77.17-3.52.53-5.63.87,1.01,1.62,1.86,2.73,2.45,3.97.81,1.74,2.02,2.49,3.94,2.35,4.64-.33,9.3-.57,13.94-.87,1.51-.1,3.01-.26,4.84-.41-1.42,2.27-2.81,3.21-5.27,3.19-4.22-.03-8.46.46-12.67.87-1.99.2-2.27.84-1.47,2.67.54,1.22,1.18,2.38,1.78,3.57.61,1.2,1.53,1.71,2.87,1.32,5.64-1.66,11.61-2.19,16.92-4.98,6.07-2.27,2.87-7.1,0-10Z"/><path class="cls-2" d="m422.86,221.74c-1.15,1.78-3.09,2.86-5.2,3.59-1.27.43-2.71.62-4.05.51-1.27-.1-2.51-.72-3.8-1.13.18-.08.38-.2.59-.25.65-.15,1.3-.31,1.96-.38,4.8-.48,8.22-3.38,11.44-6.58.41-.4.62-1.76.44-1.87-1.62-.95-1.57-2.29-1.38-3.88.07-.6-.54-1.28-.84-1.93-1.2-1.1-1.13.29-1.73,1.05-.5.64-.94,1.36-1.41,2.06-3.77,5.62-8.67,9.39-15.73,9.65-3.58.13-7.16.21-10.73.35-.86.03-1.72.21-2.71.33.14.63.12,1.01.3,1.24,3.19,4.1,6.65,7.44,12.47,7.58,7.73.18,15.43,1,23.16,1.48.94.06,1.9-.29,2.85-.45-.24-.17-.48-.35-.72-.52-.14-1.89-.86-3.99-.25-5.6.7-1.88.85-3.03-1.52-4.24-1.01-.63-2.58-1.88-3.13-1.02Z"/><path class="cls-2" d="m486.35,319.79l-.18.82c1.49,1.26,3.07,2.44,4.46,3.8,2.55,2.49,5.53,2.7,8.55,1.43,2.92-1.22,4.94-3.53,6.59-6.85-6.86.28-13.14.54-19.42.8Z"/><path class="cls-2" d="m450.58,283.88l-.26.46c-.7-.25-1.43-.44-2.1-.75-3.01-1.37-6.14-1.93-9.44-1.5-3.26.42-3.63,1.2-1.68,3.81,1.13,1.51,2.2,3.22,4.52,2.96,2.86-.32,5.74-.6,8.59-1.01.76-.11,1.72-.41,2.13-.96,1.22-1.63-1.31-5.86-3.9-6.02.82,1.15,1.49,2.08,2.15,3Z"/><path class="cls-2" d="m489.31,302.28c-5.69.57-10.51,2.94-15.68,6.04,2.52,1.85,4.22,4.09,7.05,2.93,4.09-1.67,6.36-5.3,8.62-8.98Z"/><path class="cls-2" d="m464.6,303.05c2.98,2.05,4.76,1.86,7.11-.26,2.46-2.21,4.93-4.4,7.45-6.54,1.24-1.05,2.59-1.97,3.89-2.95l-.53-.82c-5.55,4.07-12.22,6.22-17.92,10.56Z"/><path class="cls-2" d="m513.57,442c-1.28,1.9-.07,8.1,1.9,9.71,2.91-3.61,2.13-6.15-1.9-9.71Z"/><path class="cls-2" d="m270.1,334.29c.52,7.91,1.15,28.11,18.79,42.37,19,15.35,35.95,35.36,38.18,26.66s12.24-35.63,7.69-42.54c-4.54-6.91-10.5-22.48-25.23-23.3-8.83-.49-15.21-3.27-18.17-5.57-2.32-1.8-1.5-3.88-1.2-4.21s-.39-2.73-2.46-2.14c-2.07.59-8.99-5.58-12.09-4.5-5.64,1.96-3.76,6.96-5.21,8.02-1.14.84-1.49,1.75-.3,5.2Z"/><path class="cls-1" d="m268.7,331.11c3.78,1.3-1.52,28.01,20.2,45.56,19,15.35,35.95,35.36,38.18,26.66s10.82-35.82,6.28-42.73c-4.54-6.91-10.5-22.48-25.23-23.3-14.73-.81-22.28-6.65-15.71-10.86,6.57-4.21,1.74.83,1.74.83,0,0-3.23.71-2.63,2.33s2.08,3.44,3.81,3.83,5.35,2.8,15.12,2.36,15.51,6.55,15.55,7.63,8.78.03,13.77,2.9c4.99,2.87,5.86,8,8.46,9.87s12.5,18.35,10.92,26.01c-1.58,7.67-11.09,18.98-9.54,24.63s3.34,20.55-13.11,13.71c-16.45-6.83-47.32-18.79-48.24-26.56-.92-7.77-7.11-22.75-9.88-25.47s-7.59-13.83-7.26-15.91-2.25-16.8-3.03-17.68-1.46-3.33.6-3.82Z"/><path d="m282.36,349.39c2.05,8.02,1.21,12.03,9.01,19.75,7.79,7.72,14.08,10.73,26.49,11.04,12.41.31-12.03-6.88-17.68-10.95-12.43-8.94-21.59-34.65-17.82-19.84Z"/><path class="cls-2" d="m331.94,350.43c-1.77-.28,6.14-2.9,8.7-1.08s3.62,5.44,4.78,5.82-4.83-1.57-7.47-1.57-5.8-3.14-6-3.17Z"/><path class="cls-2" d="m335.99,355.74c3.63.16,9.03-.62,11.94,2.88,2.91,3.5,5.35,7.33,5.35,7.33,0,0-7.56-3.62-9.8-3.56s-6.72-2.47-7.27-4.18-.22-2.47-.22-2.47Z"/><path class="cls-2" d="m339.2,363.75c5.15.81,12.52,1.75,14.59,4.11,2.07,2.35,1.6,5.33,2.44,6.47s.25,2.27.25,2.27c0,0-7.43-4.41-11.06-4.57s-6.22-8.28-6.22-8.28Z"/><path class="cls-2" d="m340.58,371.54c4,1.99,6.65,3.22,9.03,3.59s6.02,1.75,6.54,3.66.97,4.21.03,6.3-1.85,2.76-2.33,4.51-.5-3.33-4.38-5.76c-3.88-2.43-6.93-3.3-7.65-6.06s-1.24-6.24-1.24-6.24Z"/><path class="cls-2" d="m339.2,379.39c2.1,2.16,6.17,3.4,8.13,5.13s5.2,5.69,4.47,7.81-2.39,4.91-2.47,6.72-3.82-2.83-4.74-6.02-4.61-2.95-5.14-6.08-.24-7.55-.24-7.55Z"/><path class="cls-2" d="m336.64,387.92c1.67,2.29,2.19,1.51,4.84,4.69,2.66,3.18,4.95,8.01,6.05,8.79s-.68,4.36-.43,6.63,2.3,2.79,1.8,5.36c-1.1,5.72-2.14,9.82-8.15.15-4.11-6.62-8.18-6.15-5.22-19.9.55-2.55,1.1-5.72,1.1-5.72Z"/><path class="cls-2" d="m331.33,401.11c.95,2.99,1,6.42,4.73,9.96s4.43,8.12,6.68,9.29c2.25,1.16-7.73-1.21-12.68-4.62s-3.83-6.69-2.43-9.11,3.7-5.51,3.7-5.51Z"/><path class="cls-2" d="m315.82,402.95c3.88,2.43,6.97,1.7,7.45,4.72s2.56,6.59,2.93,6.85-8.21-3.31-9.55-5.15c-1.34-1.83-.82-6.42-.82-6.42Z"/><path class="cls-2" d="m308.36,396.09c-1.36-2.32,4.14,2.07,4.87,5.23s-1.46,5.46.33,6.96-7.77-2.23-7.46-4.21,3.7-5.51,2.26-7.97Z"/><path class="cls-2" d="m299.9,387.87c2.19,1.56,5.05,4.04,5.67,6.57s-1.93,4.57-1.18,7.53c.76,2.96-1.73,1.96-4.97-1.99s-.52-5.77-1.24-8.93,1.72-3.18,1.72-3.18Z"/><path class="cls-2" d="m288.66,379.21c3.91,2.24,5.05,2.36,6.7,6.53,2.47,6.28-1.68,5.85.53,9.63s1.15,5.66-1.58,3.61-4.54-2.13-4.74-8.66,1.28-4.27-.9-11.11Z"/><path class="cls-2" d="m387.41,431.88c3.07,3.14,4.36,2.63,5.28,4.28s2.32,6.82,3.51,8.88-7.31-7.7-8.65-9.71-.14-3.45-.14-3.45Z"/><path class="cls-2" d="m395.11,436.3c2.18,5.12,2.33,9.2,4.78,11.23s3.03,5.36,3.89,1.49c.85-3.88,2.58-8.63,1.57-9.46s-7.73-8.06-8.05-9.24-2.19,5.98-2.19,5.98Z"/><path class="cls-2" d="m397.98,426.96c-.14-3.45-.82-5.96.2-5.13s2.56,3.59,4.68,3.81c2.12.22,4.14,3,4.12,5.86s.04,6.01.04,6.01c0,0-3.37-5.43-5.85-6.98-2.48-1.55-3.19-3.58-3.19-3.58Z"/><path class="cls-2" d="m396.59,412.43c-1.15-2.51-.28,4.83,1.86,6.31s4.9-.06,6.49,3.48c1.59,3.53-1.39-8.66-2.78-9.71s-4.41,2.46-5.57-.08Z"/><path class="cls-2" d="m393.34,405.7c1.53.38,1.8-.96,3.85-.41s3.19,3.58,3.19,3.58c0,0-2.98,1.28-5.02-.39s-2.02-2.78-2.02-2.78Z"/><path class="cls-2" d="m375.21,426.61c1.78.15,9.99,4.12,9.99,4.12l-.4,2.64-9.6-6.76Z"/><path class="cls-2" d="m142.19,415.67c-1.8,5.89,6.59-11.44,6.97-12.25.21-.46-3.63,1.93-5.62,5.67-.74,1.39-.88,5.05-1.35,6.58Z"/><path class="cls-2" d="m123.82,418.52c-.32,2.93,3.06,6.63,3.36,5.46.93-3.6,6.36-14.4,6.04-16.06-.17-.91-1.55-3.52-1.56-2.49,0,1.71-7.53,10.17-7.85,13.09Z"/><path class="cls-2" d="m127.95,395.55c-.57-6.01-2.29-6.8-.91-10.72-3.8,9.01-10.35,9.26-11.12,17.69-.24,2.6-1.05,5.88.29,3.78,2.92-4.57,12.04-7.51,11.73-10.76Z"/><path class="cls-2" d="m117.66,410.53c-.91,2.28,3.25,8.13,3.53,5.97s9.5-12.27,9.92-14.41c.25-1.27-1.43-4.89-1.68-3.57-.27,1.44-10.44,8.68-11.77,12.01Z"/><path class="cls-2" d="m129.96,425.25c.45,1.72,5.09,4.43,5.74,4.09l.36-16.92c-.48-.69-1.55-3.55-1.65-2.44-.22,2.47-5.11,12.76-4.45,15.27Z"/><path class="cls-2" d="m137.35,426.01c.29-.45,2.94-4.64,3.51-8.03.68-4.11.69-6.79.69-6.79-2.15,2.25-3.75,3.26-3.75,3.65-.02,3.74-.44,11.17-.44,11.17Z"/><path class="cls-2" d="m479.12,456.72c-2.1.93-3.52,9-2.71,11.4.92-.32.83-2.86,1.44-3.28,2.28-1.6,2.46-4.05,1.27-8.12Z"/><path class="cls-2" d="m504.22,451.28c.27-1.22.47-2.47.83-3.65.2-.65.67-1.17,1.01-1.75.71.64,1.49,1.23,2.09,1.96.39.48.71,1.19.73,1.74.11,2.28.09,4.54.13,6.81-1.21,1.03-5.18-.81-5.6-1.37s.59-2.68.81-3.73Z"/><path class="cls-2" d="m494.02,456.5c.54-1.47,1-2.97,1.64-4.4.36-.8,1-1.49,1.51-2.22.72.63,1.55,1.17,2.14,1.91.38.48.63,1.26.56,1.89-.27,2.64-.69,5.28-1.05,7.92-1.62,1.42-6.01-.03-6.42-.61s1.18-3.23,1.62-4.49Z"/><path class="cls-2" d="m482.67,462.12c.77-1.67,1.45-3.37,2.33-5.01.49-.92,1.29-1.73,1.95-2.59.74.63,1.61,1.17,2.19,1.94.38.51.56,1.35.42,2.05-.61,2.95-1.37,5.91-2.07,8.87-1.98,1.71-6.75.47-7.14-.13s1.68-3.68,2.33-5.12Z"/><path class="cls-2" d="m416.84,341.58c-2.29,6.69-8.62,23.64-1.68,39.1,7.47,16.65,12.03,36.75,16.41,29.97,4.39-6.78,20-27.17,19.3-33.85-.71-6.68.54-20.86-8.95-24.53-5.69-2.2-8.99-5.82-10.19-8.34-.94-1.97.3-3.53.61-3.75s.65-2.35-.92-2.28c-1.57.07-4.1-6.48-6.51-6.21-4.39.49-4.82,5.03-6.13,5.62-1.04.46-1.57,1.15-1.93,4.27Z"/><path d="m416.97,338.64c2.07,1.85-10.36,23.01-1.82,42.04,7.47,16.65,12.03,36.75,16.41,29.97,4.39-6.78,19.19-27.89,18.48-34.57-.71-6.68-.96-18.97-10.46-22.65-9.49-3.67-11.11-11.68-5.34-13.85s.88,1.04.88,1.04c0,0-2.38-.06-2.52,1.41s.23,3.28,1.25,3.96,2.61,3.42,9.24,5.04c6.62,1.63,8.1,8.61,7.76,9.52s5.81,1.81,8.16,5.22c2.35,3.4,1.21,7.86,2.32,9.94s2.16,17.82-1.45,23.88c-3.61,6.06-10.87,15.04-14.54,18.57-16.37,15.71-12.27,16.28-20.89,7.24-8.62-9.04-17.48-23.76-15.49-30.42s2.88-20.39,1.95-23.22c-.93-2.83-.41-13.06.5-14.72s4.11-14.45,3.9-15.34.14-3.07,1.67-3.06Z"/><path d="m415.19,371.22c.94,6.33.6,9.66,4.06,15.21,3.46,5.54,6.22,7.4,11.66,6.49,5.43-.91-5.3-4.47-7.8-7.24-5.49-6.1-9.65-26.13-7.91-14.45Z"/><path class="cls-2" d="m452.45,367.6c-1.08-.59,5.04-1.16,6.13.87s.58,5.26,1.22,5.82-2.68-2.29-4.43-2.83-2.8-3.8-2.92-3.86Z"/><path class="cls-2" d="m453.36,372.84c2.35.87,6.19,1.32,6.95,4.83s1.1,7.2,1.1,7.2c0,0-3.8-4.55-5.31-4.96-1.51-.41-3.63-3.43-3.42-4.96s.68-2.1.68-2.1Z"/><path class="cls-2" d="m452.82,380.17c3.15,1.72,7.71,4.01,8.3,6.39s-.71,4.76-.54,5.89-.59,1.94-.59,1.94c0,0-3.46-5.18-5.81-6.06-2.35-.87-1.36-8.16-1.36-8.16Z"/><path class="cls-2" d="m450.13,386.93c1.99,2.47,3.34,4.03,4.79,4.83s3.41,2.68,3.11,4.38-.77,3.7-2.08,5.25-2.15,1.92-3.05,3.28.78-2.87-.98-5.69-3.49-4.16-3.05-6.6,1.26-5.45,1.26-5.45Z"/><path class="cls-2" d="m445.6,394.18c.67,2.22,2.96,4.09,3.68,5.93s1.55,5.79.36,7.41-3.22,3.6-3.88,5.09-1.59-3.13-1.14-5.98-2.07-3.4-1.38-6.11,2.36-6.34,2.36-6.34Z"/><path class="cls-2" d="m441.01,399.75c.1,2.01.63,1.47.93,4.31.31,2.84.06,6.87.18,7.67.4,2.65-1.39,3.12-2.14,6.23-.45,1.87-1.42,3.32-2.54,5.27-2.48,4.33-3.03,5.47-2.89-2.89.09-5.72-2.17-5.89,3.98-16.26,1.14-1.92,2.48-4.33,2.48-4.33Z"/><path class="cls-2" d="m432.14,412.67c-.37,2.69-1.48,5.55-.19,9.26,1.29,3.71-1.54,5.43-.43,6.86s-2.96-.35-5.1-4.2c-2.14-3.85-.3-6.35,1.43-8.08s4.3-3.84,4.3-3.84Z"/><path class="cls-2" d="m424.62,408.57c.77,3.22,3.03,3.47,1.44,6.23s-2.58,6.46-2.53,6.79-2.76-5.23-2.41-7.2c.35-1.97,3.49-5.81,3.49-5.81Z"/><path class="cls-2" d="m420.58,401.82c-.13-2.21,2.06,2.57,1.48,5.34s-2.79,4.25-2.1,5.86-4.41-3.44-3.54-5.03,4.3-3.84,4.16-6.18Z"/><path class="cls-2" d="m418.71,392.25c.93,1.75,2,4.39,1.57,6.63s-2.81,3.41-3.29,6.03c-.49,2.62-1.8,1.28-2.63-2.67s1.58-4.91,2.15-7.69,2.2-2.3,2.2-2.3Z"/><path class="cls-2" d="m414.16,382.75c1.85,2.66,2.56,2.99,2.26,6.8-.46,5.73-3.06,4.53-2.86,8.12s-1.13,4.95-2.25,2.69-2.3-2.7-.25-8.17,2.27-3.29,3.11-9.43Z"/></svg>